<svg width="30" height="30" viewBox="0 0 30 30" fill="none" xmlns="http://www.w3.org/2000/svg">
<rect width="30" height="30" rx="8.33333" fill="white"/>
<path d="M21 20.9999V16.6049C21 14.4449 20.535 12.7949 18.015 12.7949C16.8 12.7949 15.99 13.4549 15.66 14.0849H15.63V12.9899H13.245V20.9999H15.735V17.0249C15.735 15.9749 15.93 14.9699 17.22 14.9699C18.495 14.9699 18.51 16.1549 18.51 17.0849V20.9849H21V20.9999Z" fill="#2E2E2E"/>
<path d="M9.19501 12.9902H11.685V21.0002H9.19501V12.9902Z" fill="#2E2E2E"/>
<path d="M10.44 9C9.645 9 9 9.645 9 10.44C9 11.235 9.645 11.895 10.44 11.895C11.235 11.895 11.88 11.235 11.88 10.44C11.88 9.645 11.235 9 10.44 9Z" fill="#2E2E2E"/>
</svg>
