<svg width="189" height="43" viewBox="0 0 189 43" fill="none" xmlns="http://www.w3.org/2000/svg">
<path d="M96.0783 35.3553C96.0783 35.3553 96.2009 35.4044 96.2009 35.5024C96.2009 35.7476 96.1518 35.8702 96.0783 35.8702H88.6245C88.6245 35.8702 88.551 35.7476 88.551 35.5024L88.6245 35.3553C89.0413 35.3553 89.3846 35.1837 89.6298 34.8404C89.875 34.4972 89.9485 34.1294 89.8505 33.7125L86.614 22.63C86.614 22.63 86.5649 22.5564 86.4423 22.5564C84.1866 22.5564 82.078 23.1204 80.1164 24.2237C78.1549 25.3271 76.7573 26.9208 75.8747 28.9804L74.428 33.4919C74.2564 33.9087 74.33 34.3255 74.5997 34.7178C74.8694 35.1101 75.2372 35.3308 75.703 35.3553C75.7521 35.3553 75.7766 35.4044 75.7766 35.5024C75.7766 35.7476 75.7521 35.8702 75.703 35.8702H72.0742C72.0742 35.8702 71.9026 35.8212 71.9026 35.6986C71.9026 35.4534 71.9516 35.3308 72.0742 35.3308C72.4175 35.3308 72.7362 35.2082 73.0305 34.9875C73.3247 34.7669 73.5208 34.4726 73.6189 34.1294L82.2741 7.84505L82.3477 7.77148H85.9765L86.1481 7.84505L93.5283 33.4183C93.7245 33.9823 94.0432 34.4236 94.4846 34.7914C94.9259 35.1592 95.4653 35.3308 96.0292 35.3308L96.0783 35.3553ZM86.3443 21.9925C86.3443 21.9925 86.3933 21.8944 86.3933 21.8209L82.6909 9.02196C82.6909 9.02196 82.6174 8.97292 82.5683 8.97292C82.5193 8.97292 82.4948 8.97292 82.4948 9.02196L76.9045 26.0626V26.1852C76.9045 26.1852 77.0271 26.2833 77.0271 26.1852C78.1059 24.9593 79.4789 23.954 81.1217 23.1939C82.7645 22.4338 84.4808 22.017 86.2952 21.9925H86.3688H86.3443Z" fill="white"/>
<path d="M96.078 36.2628H88.6243C88.1584 36.2628 88.1584 35.6989 88.1584 35.5027L88.2074 35.3311L88.4036 34.9633H88.6488C88.943 34.9633 89.1637 34.8407 89.3598 34.5955C89.556 34.3504 89.605 34.1052 89.5069 33.8109L86.344 22.9245C84.2108 22.949 82.2003 23.4885 80.3614 24.5182C78.4979 25.5726 77.1249 27.1173 76.2912 29.1033L74.8691 33.5657C74.7465 33.8845 74.7956 34.1787 74.9917 34.4484C75.2124 34.7427 75.4576 34.8898 75.8008 34.9143C75.948 34.9143 76.2422 35.0369 76.2422 35.4537C76.2422 35.6499 76.2422 36.2138 75.7763 36.2138H72.1475C71.8288 36.2138 71.6081 35.9931 71.6081 35.6744C71.6081 34.9878 72.0249 34.9143 72.1475 34.9143C72.4172 34.9143 72.6379 34.8407 72.8586 34.6691C73.0792 34.4975 73.2509 34.2768 73.3244 34.0071L82.0777 7.55114L82.2738 7.35498L86.2459 7.40402L86.5647 7.55114L93.9939 33.296C94.141 33.7619 94.4352 34.1542 94.8276 34.4729C95.2199 34.7672 95.6367 34.9388 96.1516 34.9388C96.3968 34.9388 96.6665 35.1104 96.6665 35.4782C96.6665 36.1402 96.3477 36.2383 96.1516 36.2383L96.078 36.2628ZM75.7028 35.7479C75.7028 35.7479 75.7273 35.7479 75.7518 35.7479C75.7518 35.7479 75.7273 35.7479 75.7028 35.7479ZM89.5315 35.4782H94.8766C94.6804 35.3802 94.4843 35.2576 94.2881 35.1104C93.7732 34.6936 93.4055 34.1787 93.2093 33.5657L85.8781 8.18863H82.6416L82.4945 8.60544H82.5681C82.7642 8.60544 82.8868 8.679 82.9604 8.75256L83.0339 8.82611V8.92419L86.7853 21.8457C86.7853 21.9683 86.7608 22.0664 86.7118 22.1644C86.9079 22.2625 87.006 22.4096 87.0305 22.5567L90.2425 33.6148C90.3896 34.1297 90.2915 34.6446 89.9728 35.0614C89.8502 35.233 89.7031 35.3802 89.5315 35.4782ZM73.0792 35.4782H74.8936C74.673 35.3556 74.5013 35.1595 74.3297 34.9388C74.1826 34.7427 74.0845 34.522 74.0355 34.3013C73.9129 34.7181 73.6677 35.0614 73.2999 35.3311C73.2263 35.3801 73.1528 35.4537 73.0547 35.4782H73.0792ZM76.61 26.4552L76.3403 27.3134C76.4874 27.0682 76.659 26.8476 76.8061 26.6269C76.7326 26.6024 76.6835 26.5533 76.61 26.4798V26.4552ZM82.5681 10.0275L77.6643 24.9841C78.596 24.1505 79.6994 23.4149 80.9498 22.8264C82.519 22.0909 84.2108 21.6741 85.9272 21.6005L82.5681 10.003V10.0275Z" fill="white"/>
<path d="M113.192 15.6914C113.192 15.6914 113.192 15.814 113.118 15.8876L111.451 17.1135H111.328C111.328 17.1135 111.157 17.0645 111.157 16.9419C110.911 14.9804 110.151 14.2448 108.876 14.7842C107.871 15.1765 106.939 16.0837 106.13 17.5058C105.787 18.1188 105.566 18.6827 105.444 19.1731V33.4186C105.444 33.9581 105.615 34.3994 105.934 34.7427C106.277 35.1104 106.694 35.3311 107.234 35.4047C107.356 35.4047 107.43 35.4537 107.43 35.5763V35.6499C107.43 35.7725 107.356 35.846 107.234 35.846H99.9759C99.8533 35.846 99.7798 35.7725 99.7798 35.6499V35.5763C99.7798 35.5763 99.8288 35.4047 99.9514 35.4047C100.466 35.3311 100.883 35.1104 101.202 34.7427C101.545 34.3749 101.692 33.9335 101.692 33.4186V17.8246C101.692 17.3097 101.521 16.8929 101.177 16.5006C100.834 16.1328 100.417 15.9121 99.9514 15.8631C99.8533 15.8631 99.7798 15.7895 99.7798 15.6669V15.4953C99.7798 15.4953 99.8288 15.3727 99.9514 15.3727L105.223 13.2886H105.395C105.395 13.2886 105.468 13.4112 105.468 13.4847V16.8438C105.468 16.8438 105.517 16.9664 105.591 17.089C105.64 17.089 105.713 17.04 105.836 16.9174C106.498 15.9121 107.356 15.103 108.361 14.5145C109.391 13.9261 110.372 13.7054 111.304 13.8525C112.235 14.0242 112.873 14.6126 113.216 15.6424L113.192 15.6914Z" fill="white"/>
<path d="M107.258 36.2626H100.001C99.6575 36.2626 99.4123 36.0174 99.4123 35.6741C99.4123 35.2818 99.6329 35.0366 99.9517 35.0366C100.319 34.9631 100.638 34.7914 100.932 34.4972C101.202 34.203 101.325 33.8597 101.325 33.4184V17.8243C101.325 17.4075 101.178 17.0642 100.908 16.77C100.638 16.4758 100.295 16.3041 99.9026 16.2551C99.682 16.2551 99.4123 16.0589 99.4123 15.6666V15.495C99.4123 15.2743 99.5594 15.0292 99.8781 14.9801L105.223 12.896H105.542L105.665 13.0186C105.787 13.1412 105.861 13.3128 105.861 13.4845V16.2061C106.474 15.3969 107.258 14.7104 108.166 14.171C109.269 13.5335 110.348 13.2883 111.353 13.4599C112.432 13.6561 113.167 14.3426 113.56 15.495C113.609 15.6176 113.658 15.8383 113.388 16.108L111.574 17.4565H111.328C111.01 17.4565 110.789 17.2359 110.789 16.9171C110.666 15.9609 110.397 15.2989 110.029 15.0782C109.784 14.9311 109.465 14.9556 109.073 15.1272C108.141 15.495 107.283 16.3532 106.498 17.6772C106.179 18.2411 105.959 18.7805 105.861 19.2464V33.4184C105.861 33.8597 106.008 34.203 106.253 34.4972C106.523 34.7914 106.866 34.9631 107.332 35.0366C107.651 35.0366 107.871 35.3063 107.871 35.576C107.871 35.9929 107.626 36.238 107.283 36.238L107.258 36.2626ZM100.957 35.478H106.229C106.032 35.3554 105.836 35.2083 105.665 35.0366C105.272 34.5953 105.052 34.0804 105.052 33.4429V19.1974C105.174 18.6334 105.37 18.0695 105.689 17.5056C105.64 17.5056 105.616 17.5056 105.567 17.5056H105.37L105.248 17.3585C105.101 17.1868 105.052 17.0397 105.052 16.8926V13.8277L100.467 15.6421C100.834 15.7647 101.178 15.9854 101.447 16.2796C101.864 16.721 102.06 17.2604 102.06 17.8488V33.4429C102.06 34.0804 101.864 34.6198 101.447 35.0366C101.276 35.2083 101.104 35.3554 100.908 35.478H100.957ZM110.029 14.2936C110.152 14.3181 110.274 14.3671 110.397 14.4407C110.961 14.7594 111.328 15.4705 111.5 16.5738L112.775 15.6421C112.481 14.833 111.966 14.3917 111.23 14.2691C110.838 14.1955 110.446 14.22 110.053 14.2691L110.029 14.2936ZM99.9517 15.495C99.9517 15.495 99.9762 15.495 100.001 15.495C100.001 15.495 99.9762 15.495 99.9517 15.495Z" fill="white"/>
<path d="M128.124 33.37L128.173 33.4436C127.904 34.3262 127.34 34.9637 126.457 35.356C125.574 35.7483 124.618 35.92 123.539 35.8709C121.848 35.8464 120.425 35.4051 119.322 34.5714C118.219 33.7378 117.655 32.5118 117.655 30.9181V13.6077C117.655 13.6077 117.606 13.4851 117.483 13.4851H115.203L115.129 13.4116V13.1419L115.203 13.0683H117.483C117.483 13.0683 117.655 13.0193 117.655 12.8967V10.9842C117.655 10.4448 117.459 10.0034 117.091 9.61113C116.723 9.21882 116.282 9.02267 115.767 8.99815C115.693 8.99815 115.644 8.97364 115.644 8.9246V8.65489C115.644 8.65489 115.718 8.58134 115.767 8.58134L121.186 7.94385H121.259V12.9212C121.259 12.9212 121.308 13.0928 121.431 13.0928H123.613C123.613 13.0928 123.785 13.1173 123.785 13.1664V13.4361C123.785 13.4361 123.686 13.5096 123.613 13.5096H121.431C121.431 13.5096 121.259 13.5587 121.259 13.6322V31.5556C121.259 32.7325 121.529 33.6887 122.068 34.3998C122.608 35.1354 123.221 35.5032 123.932 35.5032C124.52 35.5032 125.06 35.258 125.599 34.7676C126.114 34.2772 126.506 33.5171 126.727 32.4628C126.727 32.4138 126.727 32.3647 126.776 32.3402C126.825 32.3402 126.874 32.3402 126.948 32.3892L128.1 33.3945L128.124 33.37Z" fill="white"/>
<path d="M123.907 36.2636C123.784 36.2636 123.662 36.2636 123.515 36.2636C121.749 36.239 120.254 35.7732 119.101 34.8905C117.9 33.9833 117.287 32.6593 117.287 30.9184V13.8778H115.08L114.786 13.559V12.9706L115.08 12.6518H117.287V10.96C117.287 10.5187 117.14 10.1754 116.845 9.85665C116.551 9.5379 116.183 9.39078 115.791 9.36627C115.472 9.36627 115.301 9.12108 115.301 8.90041L115.35 8.45907C115.448 8.26292 115.619 8.16484 115.816 8.16484L121.7 7.52734V12.6763H123.662C124.029 12.6763 124.201 12.9215 124.201 13.1422V13.5835L124.078 13.7061C123.956 13.8287 123.809 13.9023 123.637 13.9023H121.676V31.5314C121.676 32.6102 121.921 33.4929 122.387 34.1549C123.22 35.3073 124.348 35.4054 125.329 34.4492C125.795 34.0078 126.138 33.2968 126.359 32.3405C126.359 32.2425 126.432 32.1199 126.506 32.0463L126.628 31.9237H126.8C126.8 31.9237 127.021 31.9482 127.119 31.9973L127.192 32.0463L128.492 33.2477L128.565 33.3948L128.516 33.542C128.222 34.5227 127.56 35.2583 126.579 35.6996C125.746 36.0674 124.839 36.2636 123.882 36.2636H123.907ZM117.924 13.2648C117.924 13.2648 118.047 13.4854 118.047 13.608V30.9184C118.047 32.3896 118.537 33.4929 119.542 34.253C120.352 34.866 121.381 35.2583 122.558 35.4054C122.264 35.2092 121.994 34.9395 121.749 34.5963C121.161 33.8117 120.866 32.7574 120.866 31.5069V13.608C120.866 13.608 120.916 13.3629 120.989 13.2648C120.916 13.1667 120.866 13.0441 120.866 12.897V8.33647L116.674 8.82685C116.919 8.94944 117.14 9.12108 117.36 9.31723C117.802 9.78309 118.022 10.3225 118.022 10.96V12.8725C118.022 13.0196 117.973 13.1422 117.9 13.2403L117.924 13.2648ZM127.021 32.929C126.751 33.8607 126.383 34.5472 125.893 35.0131C125.819 35.0867 125.721 35.1602 125.623 35.2338C125.844 35.1602 126.065 35.0867 126.261 34.9886C126.972 34.6698 127.438 34.1794 127.707 33.5174L127.021 32.929ZM127.143 32.4386C127.143 32.4386 127.143 32.4876 127.143 32.5122C127.143 32.4876 127.143 32.4631 127.143 32.4386ZM115.865 8.92492H115.84C115.84 8.92492 115.84 8.92492 115.865 8.92492Z" fill="white"/>
<path d="M150.094 29.4967V29.6438C149.162 31.5318 147.764 33.0519 145.901 34.1798C144.038 35.3077 142.003 35.8716 139.796 35.8716C136.608 35.8716 133.862 34.7683 131.606 32.537C129.326 30.3058 128.198 27.6578 128.198 24.5439C128.198 21.4299 129.326 18.7819 131.606 16.5752C133.887 14.3685 136.608 13.2651 139.796 13.2651C142.003 13.2651 144.038 13.8291 145.901 14.9569C147.764 16.0848 149.162 17.605 150.094 19.493C150.118 19.5175 150.118 19.542 150.094 19.591C150.094 19.6401 150.045 19.6401 149.996 19.6401L148.647 20.3511L132.685 28.6385V28.7611C133.421 30.8207 134.475 32.439 135.848 33.6159C137.221 34.8173 138.815 35.4058 140.605 35.4058C142.395 35.4058 144.136 34.8173 145.827 33.6649C147.519 32.5125 148.819 31.0904 149.701 29.3741H149.775C149.775 29.3741 149.824 29.3496 149.824 29.3741L150.069 29.4476L150.094 29.4967ZM132.514 28.2217H132.636L148.402 20.0079C148.402 20.0079 148.476 19.9098 148.476 19.8362C147.74 17.9728 146.661 16.4771 145.288 15.3738C143.915 14.2459 142.37 13.7065 140.654 13.7065C138.227 13.7065 136.167 14.7608 134.475 16.8694C132.783 18.9781 131.925 21.5525 131.925 24.5439C131.925 25.7208 132.121 26.9222 132.514 28.1236V28.1972V28.2217Z" fill="white"/>
<path d="M139.795 36.2642C136.51 36.2642 133.666 35.1118 131.336 32.8316C129.007 30.5513 127.805 27.7562 127.805 24.5442C127.805 21.3322 128.982 18.5615 131.336 16.2813C133.666 14.001 136.534 12.8486 139.795 12.8486C142.051 12.8486 144.184 13.4371 146.097 14.5895C148.009 15.7419 149.456 17.3111 150.412 19.2481C150.486 19.3707 150.51 19.5178 150.461 19.6649C150.412 19.8365 150.265 19.9591 150.118 19.9836L148.818 20.6702L133.126 28.835C133.837 30.6984 134.842 32.2186 136.117 33.322C137.417 34.4498 138.937 35.0138 140.629 35.0138C142.321 35.0138 144.013 34.4498 145.631 33.3465C147.274 32.2431 148.524 30.8455 149.382 29.2028L149.48 28.9821H149.701C149.701 28.9821 149.897 28.9821 149.971 28.9821L150.461 29.1537L150.412 29.7667C149.456 31.7037 147.985 33.2974 146.072 34.4498C144.16 35.6022 142.026 36.1907 139.771 36.1907L139.795 36.2642ZM137.907 13.8049C135.627 14.1727 133.616 15.1779 131.9 16.8697C129.718 19.0029 128.615 21.5774 128.615 24.5687C128.615 27.56 129.718 30.159 131.9 32.2922C133.641 33.984 135.676 35.0138 137.956 35.3816C137.123 35.0628 136.338 34.5969 135.627 33.9594C134.205 32.7335 133.102 31.0417 132.341 28.9331V28.6388H132.121V28.222C131.729 26.9961 131.532 25.7456 131.532 24.5687C131.532 21.4793 132.415 18.8313 134.18 16.6491C135.284 15.3005 136.534 14.3443 137.932 13.8294L137.907 13.8049ZM140.653 14.0746C138.324 14.0746 136.412 15.0553 134.769 17.0904C133.126 19.1255 132.292 21.6264 132.292 24.5197C132.292 25.5494 132.464 26.6038 132.783 27.6826L148.009 19.7385C147.298 18.0466 146.293 16.6736 145.018 15.6683C143.718 14.614 142.247 14.0746 140.629 14.0746H140.653ZM145.925 15.4231C147.151 16.5265 148.132 17.9731 148.818 19.6894V19.812L149.627 19.3952C148.769 17.7769 147.543 16.4284 145.95 15.4231H145.925Z" fill="white"/>
<path d="M165.541 15.6914C165.541 15.6914 165.541 15.814 165.468 15.8876L163.801 17.1135H163.678C163.678 17.1135 163.506 17.0645 163.506 16.9419C163.261 14.9804 162.501 14.2448 161.226 14.7842C160.221 15.1765 159.289 16.0837 158.48 17.5058C158.137 18.1188 157.916 18.6827 157.793 19.1731V33.4186C157.793 33.9581 157.965 34.3994 158.284 34.7427C158.627 35.1104 159.044 35.3311 159.583 35.4047C159.706 35.4047 159.779 35.4537 159.779 35.5763V35.6499C159.779 35.7725 159.706 35.846 159.583 35.846H152.326C152.203 35.846 152.129 35.7725 152.129 35.6499V35.5763C152.129 35.5763 152.179 35.4047 152.301 35.4047C152.816 35.3311 153.233 35.1104 153.552 34.7427C153.895 34.3749 154.042 33.9335 154.042 33.4186V17.8246C154.042 17.3097 153.87 16.8929 153.527 16.5006C153.184 16.1328 152.767 15.9121 152.301 15.8631C152.203 15.8631 152.129 15.7895 152.129 15.6669V15.4953C152.129 15.4953 152.179 15.3727 152.301 15.3727L157.573 13.2886H157.744C157.744 13.2886 157.818 13.4112 157.818 13.4847V16.8438C157.818 16.8438 157.867 16.9664 157.94 17.089C157.989 17.089 158.063 17.04 158.186 16.9174C158.848 15.9121 159.706 15.103 160.711 14.5145C161.741 13.9261 162.722 13.7054 163.653 13.8525C164.585 14.0242 165.223 14.6126 165.566 15.6424L165.541 15.6914Z" fill="white"/>
<path d="M159.583 36.2621H152.325C151.982 36.2621 151.737 36.0169 151.737 35.6736C151.737 35.2813 151.958 35.0361 152.276 35.0361C152.644 34.9626 152.963 34.7909 153.257 34.4967C153.527 34.2025 153.649 33.8592 153.649 33.4179V17.8238C153.649 17.407 153.502 17.0637 153.233 16.7695C152.963 16.4753 152.62 16.3036 152.227 16.2546C152.007 16.2546 151.737 16.0585 151.737 15.6662V15.4945C151.737 15.2738 151.884 15.0287 152.203 14.9796L157.548 12.8955H157.867L157.989 13.0181C158.112 13.1407 158.185 13.3123 158.185 13.484V16.2056C158.798 15.3964 159.583 14.7099 160.49 14.1705C161.594 13.533 162.672 13.2878 163.678 13.4595C164.756 13.6556 165.492 14.3421 165.884 15.4945C165.933 15.6171 165.982 15.8623 165.713 16.1075L163.898 17.456H163.653C163.334 17.456 163.114 17.2354 163.114 16.9166C162.991 15.9604 162.721 15.2984 162.354 15.0777C162.108 14.9306 161.79 14.9551 161.397 15.1267C160.466 15.4945 159.607 16.3527 158.823 17.6767C158.504 18.2406 158.283 18.7801 158.185 19.2459V33.4179C158.185 33.8592 158.332 34.2025 158.578 34.4967C158.847 34.7909 159.191 34.9626 159.657 35.0361C160 35.0361 160.171 35.3058 160.171 35.5755C160.171 35.9924 159.926 36.2376 159.583 36.2376V36.2621ZM153.282 35.4775H158.553C158.357 35.3549 158.161 35.2078 157.989 35.0361C157.597 34.5948 157.376 34.0554 157.376 33.4424V19.1969C157.474 18.633 157.695 18.069 158.014 17.5051C157.965 17.5051 157.94 17.5051 157.891 17.5051H157.695L157.572 17.358C157.425 17.1863 157.376 17.0392 157.376 16.8921V13.8272L152.791 15.6416C153.159 15.7642 153.502 15.9849 153.772 16.2791C154.189 16.7205 154.385 17.2599 154.385 17.8483V33.4424C154.385 34.0799 154.189 34.6193 153.772 35.0361C153.6 35.2078 153.429 35.3549 153.233 35.4775H153.282ZM162.378 14.2931C162.501 14.3176 162.623 14.3666 162.746 14.4402C163.31 14.759 163.678 15.47 163.849 16.5734L165.124 15.6416C164.805 14.8325 164.315 14.3912 163.58 14.2686C163.187 14.195 162.795 14.2195 162.403 14.2686L162.378 14.2931ZM152.301 15.4945C152.301 15.4945 152.325 15.4945 152.35 15.4945C152.35 15.4945 152.325 15.4945 152.301 15.4945Z" fill="white"/>
<path d="M188.196 35.432C188.196 35.6772 188.196 35.7998 188.147 35.7998H182.679L182.556 35.7262V34.5248C182.556 34.5248 182.556 34.4267 182.507 34.4267C182.458 34.4267 182.434 34.4267 182.409 34.4267C180.497 35.383 178.413 35.8733 176.181 35.8733C173.386 35.8733 171.008 35.2113 169.022 33.8628C167.036 32.5142 166.055 30.9205 166.08 29.0571C166.08 28.0273 166.251 27.1201 166.619 26.36C166.987 25.5999 167.404 25.0114 167.919 24.5946C168.433 24.1778 169.095 23.8345 169.954 23.5403C170.812 23.2461 171.572 23.0499 172.258 22.9518C172.945 22.8538 173.828 22.7312 174.882 22.584C175.936 22.4369 176.77 22.2898 177.358 22.1672C178.658 21.8975 179.737 21.5052 180.57 20.9413C181.404 20.4019 181.968 19.8134 182.262 19.1759C182.556 18.5384 182.654 17.8764 182.556 17.2144C182.458 16.5524 182.189 15.9394 181.698 15.4245C181.208 14.8851 180.546 14.4438 179.712 14.1005C178.854 13.7572 177.922 13.5856 176.868 13.5856C176.476 13.5856 176.059 13.6346 175.617 13.7082C175.176 13.7817 174.661 13.9779 174.097 14.2476C173.533 14.5173 173.018 14.8851 172.553 15.351C172.087 15.7923 171.645 16.4298 171.229 17.2634C170.812 18.0971 170.542 19.0288 170.37 20.1076C170.37 20.1322 170.37 20.1567 170.321 20.1812C170.272 20.2057 170.248 20.2057 170.223 20.1812C169.365 19.4211 168.728 18.8081 168.311 18.3913L168.237 18.3178C168.605 16.9447 169.635 15.7187 171.327 14.6644C173.018 13.6101 175.25 13.0952 178.045 13.0952C181.943 13.1688 184.444 14.3457 185.548 16.6014C185.866 17.1899 186.063 17.6803 186.136 18.0726C186.21 18.4649 186.259 19.0288 186.259 19.7399V33.3479C186.259 33.8873 186.43 34.3286 186.798 34.7209C187.166 35.1132 187.607 35.3094 188.147 35.3339C188.171 35.3339 188.196 35.3584 188.196 35.4075V35.432ZM182.213 31.2147C182.336 30.8224 182.434 30.3075 182.507 29.7191C182.581 29.1306 182.605 28.5912 182.605 28.1499C182.605 27.7085 182.605 27.1201 182.605 26.409C182.605 25.698 182.605 25.2321 182.605 24.9869V20.7697C182.238 21.26 180.742 21.824 178.094 22.486C177.8 22.5595 177.334 22.6821 176.647 22.8538C175.985 23.0254 175.446 23.1725 175.078 23.2706C174.686 23.3687 174.244 23.5158 173.729 23.6629C173.215 23.8345 172.798 24.0062 172.43 24.1778C172.062 24.3739 171.768 24.5701 171.523 24.7662C170.346 25.796 169.757 27.2181 169.757 29.0325C169.757 30.8469 170.37 32.22 171.621 33.4459C172.871 34.6474 174.392 35.2604 176.157 35.2604C177.505 35.2604 178.731 34.8926 179.835 34.1325C180.914 33.3969 181.698 32.3916 182.189 31.1902L182.213 31.2147Z" fill="white"/>
<path d="M176.182 36.2643C173.313 36.2643 170.836 35.5532 168.801 34.1802C166.717 32.7581 165.663 31.0417 165.712 29.0557C165.712 27.9769 165.908 27.0206 166.3 26.2115C166.693 25.4024 167.159 24.7649 167.698 24.3235C168.237 23.8822 168.949 23.5144 169.856 23.1957C170.738 22.9014 171.523 22.7053 172.259 22.6072C172.945 22.5091 173.828 22.3865 174.882 22.2394C175.936 22.0923 176.746 21.9452 177.309 21.8226C178.56 21.5774 179.59 21.1851 180.399 20.6702C181.159 20.1798 181.698 19.6159 181.944 19.052C182.213 18.488 182.287 17.8996 182.213 17.3111C182.14 16.7227 181.895 16.2078 181.453 15.7174C181.012 15.227 180.399 14.8347 179.59 14.4914C178.486 14.0501 177.236 13.8294 175.716 14.1237C175.323 14.1972 174.833 14.3689 174.294 14.6386C173.754 14.9083 173.264 15.2515 172.847 15.6684C172.406 16.0852 171.989 16.6982 171.597 17.4828C171.204 18.2674 170.935 19.1746 170.787 20.2044C170.787 20.3024 170.714 20.4496 170.542 20.5476C170.346 20.6702 170.125 20.6457 169.954 20.4986C169.096 19.7385 168.483 19.1255 168.041 18.7087L167.796 18.4635L167.845 18.2428C168.237 16.7717 169.341 15.4722 171.106 14.3688C172.847 13.29 175.176 12.7261 178.021 12.7261C182.091 12.7996 184.714 14.0746 185.867 16.453C186.21 17.0659 186.406 17.5808 186.504 18.0222C186.602 18.439 186.627 19.0275 186.627 19.763V33.371C186.627 33.8124 186.774 34.1557 187.068 34.4744C187.362 34.7931 187.706 34.9403 188.147 34.9648H188.515L188.564 35.4306C188.564 35.7003 188.564 36.1907 188.122 36.1907H182.532L182.14 35.921V34.9893C180.301 35.8475 178.266 36.2643 176.157 36.2643H176.182ZM182.949 35.4061H187.019C186.847 35.308 186.676 35.1609 186.529 35.0138C186.112 34.5479 185.891 34.0085 185.891 33.371V19.763C185.891 19.0765 185.842 18.5371 185.769 18.1693C185.695 17.8015 185.499 17.3602 185.205 16.7962C184.297 14.9083 182.287 13.8294 179.222 13.5597C179.443 13.6333 179.663 13.7068 179.859 13.7804C180.767 14.1482 181.478 14.614 181.993 15.2025C182.532 15.7909 182.851 16.4775 182.949 17.213C183.047 17.9486 182.949 18.6842 182.63 19.3952C182.311 20.0572 181.747 20.6702 180.938 21.2342C181.87 20.8909 182.164 20.6457 182.238 20.5476L182.924 19.6649V25.0346C182.924 25.2798 182.924 25.7456 182.924 26.4322C182.924 27.1432 182.924 27.7317 182.924 28.173C182.924 28.6144 182.9 29.1783 182.826 29.7913C182.753 30.4288 182.655 30.9437 182.508 31.3605C181.993 32.66 181.159 33.7143 180.007 34.4989C179.492 34.8667 178.928 35.1364 178.339 35.3326C179.663 35.1119 180.938 34.7196 182.14 34.1311C182.262 34.0576 182.409 34.0331 182.581 34.0821C182.777 34.1557 182.9 34.3273 182.9 34.548V35.4306L182.949 35.4061ZM174.245 23.0976C173.485 23.1957 172.847 23.2937 172.332 23.3673C171.67 23.4654 170.91 23.637 170.101 23.9312C169.292 24.2009 168.654 24.5442 168.188 24.912C167.723 25.2798 167.33 25.8192 166.987 26.5303C166.644 27.2413 166.497 28.0749 166.497 29.0557C166.472 30.7965 167.379 32.2677 169.267 33.5427C170.616 34.4744 172.21 35.0628 173.975 35.3326C173.019 35.0138 172.161 34.4989 171.376 33.7388C170.052 32.4638 169.39 30.8701 169.39 29.0557C169.39 27.2413 170.027 25.5985 171.278 24.4952C171.548 24.25 171.866 24.0538 172.259 23.8332C172.626 23.637 173.092 23.4654 173.607 23.2937C173.828 23.2202 174.048 23.1466 174.269 23.0976H174.245ZM182.189 21.5284C181.551 21.8716 180.399 22.2885 178.168 22.8524C177.873 22.926 177.408 23.0486 176.746 23.2202C176.084 23.3918 175.569 23.5389 175.176 23.637C174.784 23.7351 174.343 23.8822 173.852 24.0293C173.362 24.1764 172.97 24.3481 172.626 24.5197C172.308 24.6913 172.013 24.863 171.817 25.0591C170.714 26.0399 170.199 27.3394 170.199 29.0312C170.199 30.723 170.763 32.0225 171.964 33.1504C173.141 34.3028 174.539 34.8667 176.231 34.8667C177.506 34.8667 178.658 34.5234 179.688 33.8124C180.693 33.1259 181.453 32.1941 181.895 31.0417C182.017 30.674 182.115 30.2081 182.164 29.6442C182.238 29.0557 182.262 28.5408 182.262 28.0995C182.262 27.6581 182.262 27.0697 182.262 26.3831C182.262 25.6721 182.262 25.2062 182.262 24.961V21.5039L182.189 21.5284ZM170.027 20.0327C170.027 20.0327 170.027 20.1063 170.027 20.1308C170.027 20.1063 170.027 20.0572 170.027 20.0327ZM168.679 18.2183C169.022 18.5616 169.488 19.0029 170.101 19.5669C170.273 18.6597 170.542 17.8505 170.91 17.1395C171.351 16.2813 171.817 15.5948 172.308 15.1289C172.749 14.7121 173.215 14.3689 173.73 14.0746C172.921 14.3198 172.185 14.6386 171.548 15.0309C170.052 15.9626 169.071 17.0414 168.679 18.2428V18.2183Z" fill="white"/>
<path d="M38.6289 19.2102C40.3947 19.0463 42.148 18.63 43.9392 18.5543C47.2817 18.4156 51.7848 18.63 54.749 20.2446C63.8938 25.2143 58.306 39.3667 47.5845 36.3394C41.0507 34.4978 37.9225 27.5856 36.2449 21.5816C33.8609 22.4393 31.6662 23.8646 29.9381 25.7188C32.4987 28.6704 33.8862 33.123 32.7636 36.9575C31.9941 39.6063 29.5976 42.8228 26.6586 40.565C24.1359 38.6225 24.426 33.7537 25.2333 31.0165C25.8261 29.0362 26.9866 27.3334 28.0713 25.6053C26.5325 24.016 24.6404 22.8556 22.761 21.7077C22.534 21.7203 21.8276 24.8863 21.6763 25.353C19.6707 31.6094 15.2686 37.3233 7.92751 36.125C-0.346972 34.788 -3.02104 24.1043 4.15606 19.4121C8.93659 16.2839 14.6379 17.5074 19.7968 18.9454C21.1213 13.963 22.9881 8.51396 25.6495 4.08661C28.5002 -0.668692 32.8519 0.138573 34.5673 5.17137L38.6162 19.2102H38.6289ZM30.0138 4.27581C29.1182 4.27581 27.3019 8.27431 26.8983 9.13203C25.2585 12.7017 24.0098 16.4353 23.0007 20.2319C22.9881 20.5221 24.6404 21.2536 24.9936 21.4807C26.419 22.3889 27.7434 23.461 28.9795 24.6088C30.039 23.852 30.9472 22.906 32.032 22.1744C33.2429 21.3545 34.5799 20.8122 35.8413 20.0932L31.2626 5.62546C31.0607 5.17138 30.5688 4.28843 30.0138 4.30104V4.27581ZM19.4311 20.2698C15.1172 18.8444 10.1601 18.1633 6.11116 20.686C-0.927195 25.0755 3.89117 34.9898 11.6737 32.6941C13.982 32.013 15.7479 30.0831 16.8705 28.0271C18.1697 25.6558 18.8256 22.8808 19.4311 20.2698ZM39.146 20.6734C40.5966 25.8828 43.2328 32.5428 49.1359 33.8924C55.4175 35.3177 59.7565 28.1911 55.6319 23.1835C52.8569 19.8283 45.4276 19.8157 41.4543 20.295C40.6722 20.3959 39.9154 20.5851 39.1334 20.6734H39.146ZM29.093 26.7153C26.873 29.3515 25.7126 32.7824 26.0027 36.2511C26.2297 38.8874 28.4497 41.902 30.5814 38.7234C33.0663 35.0276 31.7671 29.9444 29.093 26.7153Z" fill="white"/>
<path d="M47.5094 0L49.1996 5.32291L53.7657 7.29062L49.1996 9.25834L47.5094 14.5686L45.8066 9.25834L41.2405 7.29062L45.8066 5.32291L47.5094 0Z" fill="#6365FF"/>
<path d="M37.822 35.0283L38.7428 37.942L41.2403 39.0142L38.7428 40.0864L37.822 43.0001L36.8886 40.0864L34.3911 39.0142L36.8886 37.942L37.822 35.0283Z" fill="#00CFAF"/>
<path d="M12.6456 5.76367L13.5033 8.45035L15.8116 9.44682L13.5033 10.4433L12.6456 13.13L11.7879 10.4433L9.47961 9.44682L11.7879 8.45035L12.6456 5.76367Z" fill="#F2ADEE"/>
</svg>
