<svg width="91" height="88" viewBox="0 0 91 88" fill="none" xmlns="http://www.w3.org/2000/svg">
<path d="M52.4675 14.9474C53.8415 14.8199 55.2056 14.496 56.5993 14.4371C59.2 14.3291 62.7037 14.496 65.0101 15.7522C72.1254 19.619 67.7777 30.6306 59.4356 28.2752C54.3518 26.8423 51.9179 21.4641 50.6126 16.7925C48.7577 17.4599 47.05 18.5689 45.7055 20.0116C47.6978 22.3081 48.7773 25.7725 47.9039 28.7561C47.3052 30.8171 45.4405 33.3197 43.1538 31.5629C41.1909 30.0516 41.4166 26.2633 42.0448 24.1336C42.506 22.5927 43.4089 21.2678 44.253 19.9233C43.0556 18.6867 41.5835 17.7838 40.1212 16.8907C39.9445 16.9005 39.3949 19.3638 39.2771 19.727C37.7167 24.5948 34.2915 29.0407 28.5796 28.1083C22.1415 27.068 20.0608 18.7554 25.6452 15.1045C29.3648 12.6705 33.8008 13.6225 37.8148 14.7413C38.8453 10.8647 40.2978 6.62496 42.3686 3.18016C44.5866 -0.51981 47.9726 0.108301 49.3073 4.02418L52.4577 14.9474H52.4675ZM45.7643 3.32737C45.0675 3.32737 43.6543 6.43849 43.3402 7.10586C42.0644 9.88329 41.0928 12.7883 40.3076 15.7424C40.2978 15.9681 41.5835 16.5373 41.8583 16.714C42.9673 17.4206 43.9978 18.2548 44.9596 19.1479C45.784 18.5591 46.4906 17.823 47.3346 17.2538C48.2768 16.6159 49.3171 16.1938 50.2985 15.6344L46.736 4.3775C46.5789 4.02418 46.1962 3.33719 45.7643 3.347V3.32737ZM37.5302 15.7718C34.1737 14.6628 30.3167 14.1329 27.1664 16.0957C21.69 19.5111 25.4391 27.2251 31.4944 25.4389C33.2904 24.9089 34.6644 23.4073 35.5379 21.8076C36.5488 19.9625 37.0591 17.8034 37.5302 15.7718ZM52.8699 16.0859C53.9985 20.1392 56.0497 25.3211 60.6427 26.3712C65.5302 27.4802 68.9063 21.9352 65.6971 18.0389C63.5379 15.4283 57.7574 15.4185 54.6659 15.7915C54.0574 15.87 53.4685 16.0172 52.86 16.0859H52.8699ZM45.0479 20.7869C43.3206 22.8381 42.4177 25.5076 42.6434 28.2065C42.8201 30.2577 44.5474 32.6033 46.206 30.1301C48.1394 27.2545 47.1285 23.2994 45.0479 20.7869Z" fill="#2E2E2E"/>
<path d="M59.3771 0L60.6922 4.14161L64.2449 5.67263L60.6922 7.20365L59.3771 11.3354L58.0521 7.20365L54.4994 5.67263L58.0521 4.14161L59.3771 0Z" fill="#6365FF"/>
<path d="M51.8397 27.2541L52.5562 29.5212L54.4994 30.3554L52.5562 31.1896L51.8397 33.4567L51.1135 31.1896L49.1703 30.3554L51.1135 29.5212L51.8397 27.2541Z" fill="#00CFAF"/>
<path d="M32.2501 4.48389L32.9175 6.57432L34.7135 7.34965L32.9175 8.12497L32.2501 10.2154L31.5828 8.12497L29.7868 7.34965L31.5828 6.57432L32.2501 4.48389Z" fill="#F2ADEE"/>
<path d="M19.0396 62.2422C19.0396 62.2422 19.1349 62.2804 19.1349 62.3567C19.1349 62.5475 19.0968 62.6429 19.0396 62.6429H13.24C13.24 62.6429 13.1828 62.5475 13.1828 62.3567L13.24 62.2422C13.5643 62.2422 13.8314 62.1087 14.0222 61.8416C14.2129 61.5745 14.2702 61.2884 14.1939 60.964L11.6756 52.341C11.6756 52.341 11.6375 52.2838 11.5421 52.2838C9.78696 52.2838 8.1463 52.7226 6.6201 53.581C5.09389 54.4395 4.00648 55.6796 3.31969 57.2821L2.19411 60.7924C2.06057 61.1167 2.1178 61.441 2.32765 61.7462C2.53751 62.0515 2.82367 62.2232 3.18614 62.2422C3.2243 62.2422 3.24337 62.2804 3.24337 62.3567C3.24337 62.5475 3.2243 62.6429 3.18614 62.6429H0.362668C0.362668 62.6429 0.229126 62.6047 0.229126 62.5093C0.229126 62.3186 0.26728 62.2232 0.362668 62.2232C0.629753 62.2232 0.877764 62.1278 1.10669 61.9561C1.33562 61.7844 1.48824 61.5554 1.56455 61.2884L8.29892 40.8373L8.35615 40.78H11.1796L11.3132 40.8373L17.0555 60.7351C17.2081 61.1739 17.4561 61.5173 17.7995 61.8035C18.1429 62.0896 18.5626 62.2232 19.0014 62.2232L19.0396 62.2422ZM11.4658 51.845C11.4658 51.845 11.5039 51.7687 11.5039 51.7115L8.62323 41.753C8.62323 41.753 8.566 41.7148 8.52785 41.7148C8.48969 41.7148 8.47061 41.7148 8.47061 41.753L4.12094 55.0119V55.1073C4.12094 55.1073 4.21633 55.1836 4.21633 55.1073C5.05574 54.1534 6.12408 53.3712 7.40227 52.7798C8.68047 52.1884 10.0159 51.8641 11.4276 51.845H11.4849H11.4658Z" fill="#2E2E2E"/>
<path d="M19.0394 62.9491H13.2398C12.8773 62.9491 12.8773 62.5103 12.8773 62.3577L12.9155 62.2242L13.0681 61.938H13.2589C13.4878 61.938 13.6595 61.8426 13.8121 61.6518C13.9647 61.4611 14.0029 61.2703 13.9266 61.0414L11.4656 52.5709C9.80585 52.59 8.24149 53.0097 6.81068 53.811C5.36079 54.6313 4.29245 55.8332 3.64381 57.3785L2.53731 60.8506C2.44193 61.0986 2.48008 61.3275 2.6327 61.5374C2.8044 61.7663 2.99517 61.8808 3.26226 61.8999C3.37672 61.8999 3.60565 61.9952 3.60565 62.3196C3.60565 62.4722 3.60565 62.911 3.24318 62.911H0.419708C0.1717 62.911 0 62.7393 0 62.4913C0 61.9571 0.32432 61.8999 0.419708 61.8999C0.62956 61.8999 0.801256 61.8426 0.972954 61.7091C1.14465 61.5755 1.2782 61.4038 1.33543 61.194L8.1461 40.6093L8.29872 40.4567L11.3893 40.4949L11.6373 40.6093L17.4178 60.6407C17.5322 61.0032 17.7612 61.3085 18.0664 61.5565C18.3717 61.7854 18.696 61.9189 19.0966 61.9189C19.2874 61.9189 19.4972 62.0525 19.4972 62.3386C19.4972 62.8537 19.2492 62.93 19.0966 62.93L19.0394 62.9491ZM3.18595 62.5485C3.18595 62.5485 3.20502 62.5485 3.2241 62.5485C3.2241 62.5485 3.20502 62.5485 3.18595 62.5485ZM13.9457 62.3386H18.1046C17.9519 62.2623 17.7993 62.1669 17.6467 62.0525C17.2461 61.7282 16.9599 61.3275 16.8073 60.8506L11.1031 41.1054H8.58488L8.47042 41.4297H8.52765C8.68027 41.4297 8.77566 41.4869 8.83289 41.5441L8.89013 41.6014V41.6777L11.809 51.7315C11.809 51.8269 11.7899 51.9032 11.7518 51.9795C11.9044 52.0559 11.9807 52.1703 11.9998 52.2848L14.4989 60.8887C14.6134 61.2894 14.5371 61.69 14.2891 62.0143C14.1937 62.1479 14.0792 62.2623 13.9457 62.3386ZM1.14465 62.3386H2.55639C2.38469 62.2433 2.25115 62.0906 2.11761 61.9189C2.00314 61.7663 1.92683 61.5946 1.88868 61.4229C1.79329 61.7472 1.60251 62.0143 1.31635 62.2242C1.25912 62.2623 1.20188 62.3196 1.12557 62.3386H1.14465ZM3.89182 55.3181L3.68196 55.9858C3.79643 55.795 3.92997 55.6234 4.04444 55.4517C3.9872 55.4326 3.94905 55.3944 3.89182 55.3372V55.3181ZM8.52765 42.5362L4.71215 54.1735C5.4371 53.5248 6.29558 52.9525 7.26854 52.4946C8.4895 51.9223 9.80585 51.598 11.1413 51.5408L8.52765 42.5171V42.5362Z" fill="#2E2E2E"/>
<path d="M32.3547 46.9425C32.3547 46.9425 32.3547 47.0379 32.2975 47.0951L31.0002 48.049H30.9049C30.9049 48.049 30.7713 48.0108 30.7713 47.9154C30.5805 46.3892 29.9891 45.8169 28.9971 46.2366C28.2149 46.5418 27.49 47.2477 26.8604 48.3542C26.5933 48.8311 26.4216 49.2699 26.3262 49.6515V60.7355C26.3262 61.1552 26.4598 61.4986 26.7078 61.7657C26.9749 62.0519 27.2992 62.2236 27.7189 62.2808C27.8143 62.2808 27.8715 62.319 27.8715 62.4143V62.4716C27.8715 62.567 27.8143 62.6242 27.7189 62.6242H22.072C21.9766 62.6242 21.9193 62.567 21.9193 62.4716V62.4143C21.9193 62.4143 21.9575 62.2808 22.0529 62.2808C22.4535 62.2236 22.7778 62.0519 23.0258 61.7657C23.2929 61.4795 23.4074 61.1362 23.4074 60.7355V48.6022C23.4074 48.2016 23.2738 47.8773 23.0068 47.572C22.7397 47.2859 22.4154 47.1142 22.0529 47.076C21.9766 47.076 21.9193 47.0188 21.9193 46.9234V46.7899C21.9193 46.7899 21.9575 46.6945 22.0529 46.6945L26.1546 45.0729H26.2881C26.2881 45.0729 26.3453 45.1683 26.3453 45.2255V47.8391C26.3453 47.8391 26.3835 47.9345 26.4407 48.0299C26.4789 48.0299 26.5361 47.9917 26.6315 47.8964C27.1466 47.1142 27.8143 46.4846 28.5965 46.0268C29.3977 45.5689 30.1608 45.3972 30.8858 45.5117C31.6107 45.6452 32.1067 46.1031 32.3738 46.9043L32.3547 46.9425Z" fill="#2E2E2E"/>
<path d="M27.7384 62.9485H22.0914C21.8244 62.9485 21.6336 62.7578 21.6336 62.4907C21.6336 62.1854 21.8053 61.9947 22.0533 61.9947C22.3394 61.9374 22.5875 61.8039 22.8164 61.575C23.0262 61.346 23.1216 61.0789 23.1216 60.7355V48.6022C23.1216 48.2779 23.0072 48.0108 22.7973 47.7819C22.5875 47.553 22.3204 47.4194 22.0151 47.3813C21.8434 47.3813 21.6336 47.2287 21.6336 46.9234V46.7899C21.6336 46.6182 21.748 46.4274 21.996 46.3892L26.1549 44.7677H26.403L26.4983 44.863C26.5937 44.9584 26.651 45.092 26.651 45.2255V47.3431C27.1279 46.7136 27.7384 46.1794 28.4443 45.7597C29.3027 45.2637 30.1421 45.0729 30.9243 45.2064C31.7637 45.3591 32.3361 45.8932 32.6413 46.7899C32.6795 46.8853 32.7176 47.057 32.5078 47.2668L31.096 48.3161H30.9053C30.6572 48.3161 30.4855 48.1444 30.4855 47.8964C30.3902 47.1524 30.1803 46.6373 29.8941 46.4656C29.7034 46.3511 29.4554 46.3702 29.1501 46.5037C28.4252 46.7899 27.7575 47.4576 27.147 48.4878C26.899 48.9266 26.7273 49.3463 26.651 49.7087V60.7355C26.651 61.0789 26.7654 61.346 26.9562 61.575C27.1661 61.8039 27.4331 61.9374 27.7956 61.9947C28.0436 61.9947 28.2153 62.2045 28.2153 62.4144C28.2153 62.7387 28.0245 62.9295 27.7575 62.9295L27.7384 62.9485ZM22.8355 62.3381H26.9371C26.7845 62.2427 26.6319 62.1282 26.4983 61.9947C26.1931 61.6513 26.0214 61.2506 26.0214 60.7546V49.6706C26.1168 49.2318 26.2694 48.793 26.5174 48.3542C26.4793 48.3542 26.4602 48.3542 26.422 48.3542H26.2694L26.174 48.2398C26.0596 48.1062 26.0214 47.9918 26.0214 47.8773V45.4926L22.4539 46.9043C22.7401 46.9997 23.0072 47.1714 23.217 47.4004C23.5413 47.7437 23.6939 48.1635 23.6939 48.6213V60.7546C23.6939 61.2506 23.5413 61.6703 23.217 61.9947C23.0835 62.1282 22.9499 62.2427 22.7973 62.3381H22.8355ZM29.8941 45.8551C29.9895 45.8742 30.0849 45.9123 30.1803 45.9695C30.6191 46.2175 30.9053 46.7708 31.0388 47.6293L32.0308 46.9043C31.8019 46.2748 31.4013 45.9314 30.8289 45.836C30.5237 45.7788 30.2185 45.7978 29.9132 45.836L29.8941 45.8551ZM22.0533 46.7899C22.0533 46.7899 22.0724 46.7899 22.0914 46.7899C22.0914 46.7899 22.0724 46.7899 22.0533 46.7899Z" fill="#2E2E2E"/>
<path d="M43.9737 60.6987L44.0118 60.7559C43.802 61.4427 43.3632 61.9387 42.6764 62.244C41.9896 62.5492 41.2456 62.6828 40.4062 62.6446C39.0899 62.6255 37.9834 62.2821 37.1249 61.6335C36.2664 60.9849 35.8276 60.031 35.8276 58.791V45.3222C35.8276 45.3222 35.7894 45.2268 35.694 45.2268H33.9198L33.8626 45.1696V44.9598L33.9198 44.9025H35.694C35.694 44.9025 35.8276 44.8644 35.8276 44.769V43.2809C35.8276 42.8612 35.675 42.5178 35.3888 42.2126C35.1026 41.9074 34.7593 41.7547 34.3586 41.7357C34.3014 41.7357 34.2632 41.7166 34.2632 41.6784V41.4686C34.2632 41.4686 34.3205 41.4113 34.3586 41.4113L38.5748 40.9153H38.632V44.7881C38.632 44.7881 38.6701 44.9216 38.7655 44.9216H40.4634C40.4634 44.9216 40.597 44.9407 40.597 44.9788V45.1887C40.597 45.1887 40.5207 45.2459 40.4634 45.2459H38.7655C38.7655 45.2459 38.632 45.2841 38.632 45.3413V59.287C38.632 60.2027 38.8418 60.9467 39.2616 61.5C39.6813 62.0723 40.1582 62.3585 40.7114 62.3585C41.1693 62.3585 41.589 62.1677 42.0087 61.7861C42.4093 61.4046 42.7146 60.8132 42.8863 59.9928C42.8863 59.9547 42.8863 59.9165 42.9244 59.8975C42.9626 59.8975 43.0007 59.8975 43.058 59.9356L43.9546 60.7178L43.9737 60.6987Z" fill="#2E2E2E"/>
<path d="M40.692 62.95C40.5966 62.95 40.5012 62.95 40.3868 62.95C39.0132 62.931 37.8494 62.5685 36.9528 61.8817C36.018 61.1758 35.5411 60.1456 35.5411 58.7911V45.5323H33.8241L33.5952 45.2843V44.8264L33.8241 44.5784H35.5411V43.262C35.5411 42.9186 35.4266 42.6516 35.1977 42.4036C34.9687 42.1555 34.6826 42.0411 34.3773 42.022C34.1293 42.022 33.9958 41.8312 33.9958 41.6595L34.0339 41.3161C34.1102 41.1635 34.2438 41.0872 34.3964 41.0872L38.975 40.5912V44.5975H40.5012C40.7874 44.5975 40.9209 44.7882 40.9209 44.9599V45.3033L40.8255 45.3987C40.7301 45.4941 40.6157 45.5513 40.4821 45.5513H38.9559V59.2681C38.9559 60.1075 39.1467 60.7943 39.5092 61.3094C40.1578 62.206 41.0354 62.2823 41.7985 61.5383C42.161 61.1949 42.428 60.6417 42.5997 59.8976C42.5997 59.8213 42.657 59.7259 42.7142 59.6687L42.8096 59.5733H42.9431C42.9431 59.5733 43.1148 59.5924 43.1911 59.6306L43.2484 59.6687L44.2595 60.6035L44.3167 60.718L44.2786 60.8324C44.0496 61.5955 43.5345 62.1679 42.7714 62.5113C42.1228 62.7974 41.4169 62.95 40.6729 62.95H40.692ZM36.0371 45.0553C36.0371 45.0553 36.1325 45.227 36.1325 45.3224V58.7911C36.1325 59.9358 36.514 60.7943 37.2962 61.3857C37.9257 61.8626 38.727 62.1679 39.6427 62.2823C39.4138 62.1297 39.2039 61.9199 39.0132 61.6528C38.5553 61.0423 38.3264 60.222 38.3264 59.249V45.3224C38.3264 45.3224 38.3645 45.1316 38.4218 45.0553C38.3645 44.979 38.3264 44.8836 38.3264 44.7692V41.2207L35.0641 41.6023C35.2549 41.6977 35.4266 41.8312 35.5983 41.9838C35.9417 42.3463 36.1134 42.766 36.1134 43.262V44.7501C36.1134 44.8646 36.0752 44.9599 36.018 45.0363L36.0371 45.0553ZM43.1148 60.3555C42.905 61.0804 42.6188 61.6146 42.2373 61.9771C42.18 62.0343 42.1037 62.0915 42.0274 62.1488C42.1991 62.0915 42.3708 62.0343 42.5234 61.958C43.0767 61.71 43.4392 61.3284 43.649 60.8134L43.1148 60.3555ZM43.2102 59.9739C43.2102 59.9739 43.2102 60.0121 43.2102 60.0312C43.2102 60.0121 43.2102 59.993 43.2102 59.9739ZM34.4346 41.6786H34.4155C34.4155 41.6786 34.4155 41.6786 34.4346 41.6786Z" fill="#2E2E2E"/>
<path d="M61.067 57.6836V57.798C60.3421 59.267 59.2546 60.4498 57.8047 61.3274C56.3548 62.2049 54.7714 62.6437 53.0544 62.6437C50.5744 62.6437 48.4377 61.7852 46.6826 60.0492C44.9083 58.3131 44.0308 56.2527 44.0308 53.8299C44.0308 51.4071 44.9083 49.3467 46.6826 47.6297C48.4568 45.9127 50.5744 45.0542 53.0544 45.0542C54.7714 45.0542 56.3548 45.493 57.8047 46.3706C59.2546 47.2482 60.3421 48.431 61.067 49.8999C61.0861 49.919 61.0861 49.9381 61.067 49.9762C61.067 50.0144 61.0288 50.0144 60.9907 50.0144L59.9414 50.5676L47.522 57.0159V57.1112C48.0943 58.7137 48.9146 59.9729 49.983 60.8886C51.0513 61.8234 52.2913 62.2812 53.684 62.2812C55.0767 62.2812 56.4312 61.8234 57.7475 60.9267C59.0639 60.0301 60.075 58.9236 60.7618 57.5882H60.819C60.819 57.5882 60.8571 57.5691 60.8571 57.5882L61.0479 57.6454L61.067 57.6836ZM47.3884 56.6915H47.4838L59.7506 50.3006C59.7506 50.3006 59.8079 50.2243 59.8079 50.167C59.2356 48.7171 58.3961 47.5534 57.3278 46.6949C56.2595 45.8173 55.0576 45.3976 53.7222 45.3976C51.8335 45.3976 50.231 46.218 48.9146 47.8586C47.5983 49.4993 46.9306 51.5024 46.9306 53.8299C46.9306 54.7456 47.0832 55.6804 47.3884 56.6152V56.6725V56.6915Z" fill="#2E2E2E"/>
<path d="M53.0542 62.949C50.4978 62.949 48.2848 62.0523 46.4724 60.2781C44.6601 58.5039 43.7253 56.3291 43.7253 53.8299C43.7253 51.3308 44.641 49.175 46.4724 47.4008C48.2848 45.6266 50.5169 44.7299 53.0542 44.7299C54.8093 44.7299 56.4691 45.1878 57.9571 46.0844C59.4452 46.9811 60.5707 48.202 61.3147 49.7092C61.372 49.8045 61.3911 49.919 61.3529 50.0335C61.3148 50.167 61.2003 50.2624 61.0858 50.2815L60.0747 50.8157L47.8651 57.1685C48.4183 58.6184 49.2005 59.8012 50.1926 60.6597C51.2037 61.5372 52.3865 61.976 53.7028 61.976C55.0192 61.976 56.3355 61.5372 57.5946 60.6787C58.8728 59.8202 59.8458 58.7328 60.5135 57.4546L60.5898 57.2829H60.7615C60.7615 57.2829 60.9141 57.2829 60.9714 57.2829L61.3529 57.4165L61.3147 57.8934C60.5707 59.4005 59.4261 60.6406 57.938 61.5372C56.45 62.4339 54.7902 62.8917 53.0351 62.8917L53.0542 62.949ZM51.5852 45.474C49.811 45.7601 48.2466 46.5423 46.9112 47.8586C45.2133 49.5184 44.3548 51.5215 44.3548 53.849C44.3548 56.1764 45.2133 58.1987 46.9112 59.8584C48.2657 61.1748 49.8492 61.976 51.6234 62.2622C50.9747 62.0142 50.3643 61.6517 49.811 61.1557C48.7045 60.2018 47.846 58.8855 47.2546 57.2448V57.0159H47.0829V56.6915C46.7777 55.7377 46.6251 54.7647 46.6251 53.849C46.6251 51.4452 47.3119 49.3848 48.6854 47.6869C49.5439 46.6377 50.5169 45.8937 51.6043 45.493L51.5852 45.474ZM53.7219 45.6838C51.9095 45.6838 50.4215 46.4469 49.1433 48.0303C47.8651 49.6138 47.2165 51.5597 47.2165 53.8108C47.2165 54.6121 47.35 55.4324 47.598 56.2718L59.4452 50.0907C58.8919 48.7744 58.1097 47.706 57.1177 46.9238C56.1066 46.1035 54.9619 45.6838 53.7028 45.6838H53.7219ZM57.8236 46.7331C58.7774 47.5916 59.5405 48.7171 60.0747 50.0526V50.148L60.7043 49.8236C60.0366 48.5645 59.0827 47.5153 57.8426 46.7331H57.8236Z" fill="#2E2E2E"/>
<path d="M73.0863 46.9425C73.0863 46.9425 73.0863 47.0379 73.0291 47.0951L71.7318 48.049H71.6364C71.6364 48.049 71.5029 48.0108 71.5029 47.9154C71.3121 46.3892 70.7207 45.8169 69.7287 46.2366C68.9465 46.5418 68.2215 47.2477 67.592 48.3542C67.3249 48.8311 67.1532 49.2699 67.0578 49.6515V60.7355C67.0578 61.1552 67.1913 61.4986 67.4394 61.7657C67.7064 62.0519 68.0308 62.2236 68.4505 62.2808C68.5458 62.2808 68.6031 62.319 68.6031 62.4143V62.4716C68.6031 62.567 68.5458 62.6242 68.4505 62.6242H62.8035C62.7081 62.6242 62.6509 62.567 62.6509 62.4716V62.4143C62.6509 62.4143 62.689 62.2808 62.7844 62.2808C63.1851 62.2236 63.5094 62.0519 63.7574 61.7657C64.0245 61.4795 64.1389 61.1362 64.1389 60.7355V48.6022C64.1389 48.2016 64.0054 47.8773 63.7383 47.572C63.4712 47.2859 63.1469 47.1142 62.7844 47.076C62.7081 47.076 62.6509 47.0188 62.6509 46.9234V46.7899C62.6509 46.7899 62.689 46.6945 62.7844 46.6945L66.8861 45.0729H67.0196C67.0196 45.0729 67.0769 45.1683 67.0769 45.2255V47.8391C67.0769 47.8391 67.115 47.9345 67.1723 48.0299C67.2104 48.0299 67.2677 47.9917 67.363 47.8964C67.8781 47.1142 68.5458 46.4846 69.328 46.0268C70.1293 45.5689 70.8924 45.3972 71.6173 45.5117C72.3423 45.6452 72.8383 46.1031 73.1054 46.9043L73.0863 46.9425Z" fill="#2E2E2E"/>
<path d="M68.4501 62.9485H62.8031C62.536 62.9485 62.3453 62.7578 62.3453 62.4907C62.3453 62.1854 62.517 61.9947 62.765 61.9947C63.0511 61.9374 63.2991 61.8039 63.5281 61.575C63.7379 61.346 63.8333 61.0789 63.8333 60.7355V48.6022C63.8333 48.2779 63.7188 48.0108 63.509 47.7819C63.2991 47.553 63.0321 47.4194 62.7268 47.3813C62.5551 47.3813 62.3453 47.2287 62.3453 46.9234V46.7899C62.3453 46.6182 62.4597 46.4274 62.7077 46.3892L66.8666 44.7677H67.1146L67.21 44.863C67.3054 44.9584 67.3627 45.092 67.3627 45.2255V47.3431C67.8396 46.7136 68.4501 46.1794 69.1559 45.7597C70.0144 45.2637 70.8538 45.0729 71.636 45.2064C72.4754 45.3591 73.0478 45.8932 73.353 46.7899C73.3911 46.8853 73.4293 47.076 73.2194 47.2668L71.8077 48.3161H71.6169C71.3689 48.3161 71.1972 48.1444 71.1972 47.8964C71.1018 47.1524 70.892 46.6373 70.6058 46.4656C70.4151 46.3511 70.167 46.3702 69.8618 46.5037C69.1369 46.7899 68.4691 47.4576 67.8587 48.4878C67.6107 48.9266 67.439 49.3463 67.3627 49.7087V60.7355C67.3627 61.0789 67.4771 61.346 67.6679 61.575C67.8777 61.8039 68.1448 61.9374 68.5073 61.9947C68.7744 61.9947 68.9079 62.2045 68.9079 62.4144C68.9079 62.7387 68.7172 62.9295 68.4501 62.9295V62.9485ZM63.5471 62.3381H67.6488C67.4962 62.2427 67.3436 62.1282 67.21 61.9947C66.9048 61.6513 66.7331 61.2316 66.7331 60.7546V49.6706C66.8094 49.2318 66.9811 48.793 67.2291 48.3542C67.191 48.3542 67.1719 48.3542 67.1337 48.3542H66.9811L66.8857 48.2398C66.7712 48.1062 66.7331 47.9918 66.7331 47.8773V45.4926L63.1656 46.9043C63.4518 46.9997 63.7188 47.1714 63.9287 47.4004C64.253 47.7437 64.4056 48.1635 64.4056 48.6213V60.7546C64.4056 61.2506 64.253 61.6703 63.9287 61.9947C63.7952 62.1282 63.6616 62.2427 63.509 62.3381H63.5471ZM70.6249 45.8551C70.7203 45.8742 70.8157 45.9123 70.9111 45.9695C71.3499 46.2175 71.636 46.7708 71.7696 47.6293L72.7616 46.9043C72.5136 46.2748 72.132 45.9314 71.5597 45.836C71.2545 45.7788 70.9492 45.7978 70.644 45.836L70.6249 45.8551ZM62.784 46.7899C62.784 46.7899 62.8031 46.7899 62.8222 46.7899C62.8222 46.7899 62.8031 46.7899 62.784 46.7899Z" fill="#2E2E2E"/>
<path d="M90.7134 62.3017C90.7134 62.4925 90.7134 62.5879 90.6752 62.5879H86.4209L86.3256 62.5306V61.5958C86.3256 61.5958 86.3256 61.5195 86.2874 61.5195C86.2493 61.5195 86.2302 61.5195 86.2111 61.5195C84.7231 62.2636 83.1015 62.6451 81.3654 62.6451C79.1906 62.6451 77.3401 62.13 75.7948 61.0808C74.2495 60.0315 73.4864 58.7914 73.5055 57.3416C73.5055 56.5403 73.639 55.8344 73.9252 55.243C74.2113 54.6516 74.5357 54.1938 74.9363 53.8694C75.3369 53.5451 75.852 53.278 76.5197 53.0491C77.1874 52.8202 77.7788 52.6676 78.313 52.5913C78.8472 52.5149 79.534 52.4196 80.3543 52.3051C81.1746 52.1906 81.8233 52.0762 82.2811 51.9808C83.2922 51.7709 84.1317 51.4657 84.7803 51.0269C85.4289 50.6072 85.8677 50.1493 86.0966 49.6533C86.3256 49.1573 86.4019 48.6422 86.3256 48.1271C86.2493 47.612 86.0394 47.1351 85.6579 46.7345C85.2763 46.3147 84.7612 45.9714 84.1126 45.7043C83.4449 45.4372 82.7199 45.3036 81.8996 45.3036C81.5943 45.3036 81.27 45.3418 80.9266 45.399C80.5832 45.4563 80.1826 45.6089 79.7438 45.8187C79.305 46.0286 78.9044 46.3147 78.5419 46.6772C78.1795 47.0206 77.8361 47.5166 77.5118 48.1653C77.1874 48.8139 76.9776 49.5388 76.844 50.3783C76.844 50.3973 76.844 50.4164 76.8059 50.4355C76.7677 50.4546 76.7487 50.4546 76.7296 50.4355C76.0619 49.8441 75.5658 49.3672 75.2415 49.0428L75.1843 48.9856C75.4705 47.9173 76.2717 46.9634 77.5881 46.143C78.9044 45.3227 80.6405 44.9221 82.8153 44.9221C85.8486 44.9793 87.7945 45.895 88.653 47.6502C88.901 48.108 89.0536 48.4896 89.1109 48.7948C89.1681 49.1001 89.2063 49.5388 89.2063 50.0921V60.6801C89.2063 61.0998 89.3398 61.4432 89.626 61.7485C89.9121 62.0537 90.2555 62.2063 90.6752 62.2254C90.6943 62.2254 90.7134 62.2445 90.7134 62.2826V62.3017ZM86.0585 59.0204C86.1539 58.7151 86.2302 58.3145 86.2874 57.8566C86.3446 57.3988 86.3637 56.9791 86.3637 56.6357C86.3637 56.2923 86.3637 55.8344 86.3637 55.2812C86.3637 54.7279 86.3637 54.3655 86.3637 54.1747V50.8934C86.0776 51.2749 84.9138 51.7137 82.8535 52.2288C82.6245 52.286 82.2621 52.3814 81.7279 52.5149C81.2128 52.6485 80.7931 52.763 80.5069 52.8393C80.2017 52.9156 79.8583 53.03 79.4577 53.1445C79.057 53.278 78.7327 53.4116 78.4466 53.5451C78.1604 53.6977 77.9315 53.8504 77.7407 54.003C76.825 54.8042 76.3671 55.9107 76.3671 57.3225C76.3671 58.7342 76.844 59.8026 77.817 60.7564C78.7899 61.6912 79.9727 62.1682 81.3463 62.1682C82.3956 62.1682 83.3495 61.882 84.208 61.2906C85.0474 60.7183 85.6579 59.9361 86.0394 59.0013L86.0585 59.0204Z" fill="#2E2E2E"/>
<path d="M81.3658 62.9495C79.1338 62.9495 77.2069 62.3962 75.6235 61.3279C74.0019 60.2214 73.1816 58.886 73.2197 57.3407C73.2197 56.5013 73.3724 55.7573 73.6776 55.1277C73.9829 54.4981 74.3453 54.0021 74.765 53.6587C75.1847 53.3153 75.738 53.0292 76.4438 52.7812C77.1306 52.5522 77.7411 52.3996 78.3134 52.3233C78.8476 52.247 79.5344 52.1516 80.3547 52.0372C81.1751 51.9227 81.8046 51.8082 82.2434 51.7128C83.2164 51.5221 84.0176 51.2168 84.6472 50.8162C85.2386 50.4346 85.6583 49.9959 85.8491 49.5571C86.0589 49.1183 86.1161 48.6604 86.0589 48.2026C86.0017 47.7447 85.8109 47.3441 85.4675 46.9625C85.1241 46.581 84.6472 46.2757 84.0176 46.0087C83.1591 45.6653 82.1862 45.4936 81.0034 45.7225C80.6981 45.7797 80.3166 45.9133 79.8969 46.1231C79.4772 46.333 79.0956 46.6001 78.7713 46.9244C78.4279 47.2487 78.1036 47.7256 77.7984 48.3361C77.4931 48.9466 77.2833 49.6525 77.1688 50.4537C77.1688 50.53 77.1116 50.6445 76.978 50.7208C76.8254 50.8162 76.6537 50.7971 76.5202 50.6826C75.8524 50.0912 75.3755 49.6143 75.0321 49.29L74.8413 49.0992L74.8795 48.9275C75.1847 47.7829 76.0432 46.7718 77.4168 45.9133C78.7713 45.0739 80.5837 44.6351 82.7967 44.6351C85.9635 44.6923 88.0048 45.6843 88.9015 47.5349C89.1686 48.0118 89.3212 48.4124 89.3975 48.7558C89.4738 49.0801 89.4929 49.538 89.4929 50.1103V60.6983C89.4929 61.0417 89.6073 61.3088 89.8363 61.5568C90.0652 61.8048 90.3323 61.9193 90.6757 61.9384H90.9618L91 62.3009C91 62.5107 91 62.8923 90.6566 62.8923H86.3069L86.0017 62.6824V61.9575C84.5709 62.6252 82.9874 62.9495 81.3468 62.9495H81.3658ZM86.6312 62.2818H89.7981C89.6646 62.2055 89.531 62.091 89.4166 61.9765C89.0922 61.6141 88.9205 61.1944 88.9205 60.6983V50.1103C88.9205 49.5762 88.8824 49.1564 88.8252 48.8703C88.7679 48.5841 88.6153 48.2407 88.3864 47.8019C87.6805 46.333 86.1161 45.4936 83.7315 45.2837C83.9032 45.3409 84.0749 45.3982 84.2275 45.4554C84.9333 45.7416 85.4866 46.104 85.8872 46.5619C86.3069 47.0198 86.5549 47.5539 86.6312 48.1263C86.7076 48.6986 86.6312 49.2709 86.3832 49.8242C86.1352 50.3393 85.6964 50.8162 85.0669 51.255C85.7918 50.9879 86.0208 50.7971 86.078 50.7208L86.6122 50.034V54.212C86.6122 54.4028 86.6122 54.7652 86.6122 55.2994C86.6122 55.8527 86.6122 56.3105 86.6122 56.6539C86.6122 56.9973 86.5931 57.4361 86.5359 57.913C86.4786 58.409 86.4023 58.8097 86.2878 59.134C85.8872 60.1451 85.2386 60.9654 84.3419 61.5759C83.9413 61.8621 83.5025 62.0719 83.0447 62.2245C84.0749 62.0529 85.0669 61.7476 86.0017 61.2897C86.0971 61.2325 86.2115 61.2134 86.3451 61.2516C86.4977 61.3088 86.5931 61.4424 86.5931 61.6141V62.3009L86.6312 62.2818ZM79.8587 52.7049C79.2673 52.7812 78.7713 52.8575 78.3707 52.9147C77.8556 52.991 77.2642 53.1246 76.6346 53.3535C76.0051 53.5634 75.509 53.8304 75.1466 54.1166C74.7841 54.4028 74.4789 54.8225 74.2118 55.3757C73.9447 55.929 73.8302 56.5776 73.8302 57.3407C73.8112 58.6952 74.517 59.8399 75.986 60.8319C77.0353 61.5568 78.2753 62.0147 79.6489 62.2245C78.9048 61.9765 78.2371 61.5759 77.6267 60.9845C76.5965 59.9925 76.0814 58.7524 76.0814 57.3407C76.0814 55.929 76.5774 54.6508 77.5503 53.7923C77.7602 53.6015 78.0082 53.4489 78.3134 53.2772C78.5996 53.1246 78.9621 52.991 79.3627 52.8575C79.5344 52.8003 79.7061 52.743 79.8778 52.7049H79.8587ZM86.0398 51.4839C85.5438 51.751 84.6472 52.0753 82.9111 52.5141C82.6822 52.5713 82.3197 52.6667 81.8046 52.8003C81.2895 52.9338 80.8889 53.0483 80.5837 53.1246C80.2784 53.2009 79.935 53.3153 79.5535 53.4298C79.1719 53.5443 78.8667 53.6778 78.5996 53.8114C78.3516 53.9449 78.1227 54.0784 77.9701 54.2311C77.1116 54.9942 76.7109 56.0053 76.7109 57.3216C76.7109 58.638 77.1497 59.6491 78.0845 60.5266C79.0002 61.4233 80.0877 61.8621 81.404 61.8621C82.396 61.8621 83.2927 61.595 84.0939 61.0417C84.8761 60.5076 85.4675 59.7826 85.8109 58.886C85.9063 58.5998 85.9826 58.2373 86.0208 57.7986C86.078 57.3407 86.0971 56.9401 86.0971 56.5967C86.0971 56.2533 86.0971 55.7954 86.0971 55.2612C86.0971 54.708 86.0971 54.3455 86.0971 54.1548V51.4648L86.0398 51.4839ZM76.5774 50.3202C76.5774 50.3202 76.5774 50.3774 76.5774 50.3965C76.5774 50.3774 76.5774 50.3392 76.5774 50.3202ZM75.5281 48.9084C75.7952 49.1755 76.1577 49.5189 76.6346 49.9577C76.7682 49.2518 76.978 48.6223 77.2642 48.069C77.6076 47.4013 77.97 46.8671 78.3516 46.5047C78.695 46.1803 79.0575 45.9133 79.4581 45.6843C78.8285 45.8751 78.2562 46.1231 77.7602 46.4284C76.5965 47.1533 75.8334 47.9927 75.5281 48.9275V48.9084Z" fill="#2E2E2E"/>
<path d="M10.6945 84.95H9.55447L13.2985 76.454H14.2465L17.8585 84.95H16.6825L15.8185 82.862H11.5705L10.6945 84.95ZM11.9665 81.926H15.4345L13.7545 77.75H13.7305L11.9665 81.926ZM21.5797 79.19C21.7237 79.19 21.8317 79.202 21.9637 79.25L21.9037 80.198C21.7237 80.15 21.5797 80.126 21.3997 80.126C20.3197 80.126 19.7557 80.87 19.7557 82.166V84.95H18.8197V80.582C18.8197 80.21 18.7717 79.67 18.7717 79.334H19.6597C19.6597 79.682 19.6837 79.886 19.6837 80.258H19.7077C20.0077 79.622 20.7517 79.19 21.5797 79.19ZM23.5184 80.126H22.2944V79.334H23.5184V77.738H24.4544V79.334H26.1104V80.126H24.4544V83.126C24.4544 84.026 24.7544 84.23 25.2944 84.23C25.5704 84.23 25.8824 84.17 26.1224 84.038L26.1584 84.89C25.8224 85.034 25.4144 85.094 25.0664 85.094C23.9864 85.094 23.5184 84.662 23.5184 83.27V80.126ZM28.7572 84.302C28.7572 84.686 28.4212 85.022 28.0372 85.022C27.6652 85.022 27.3172 84.698 27.3172 84.302C27.3172 83.906 27.6412 83.582 28.0372 83.582C28.4332 83.582 28.7572 83.906 28.7572 84.302ZM29.841 77.39V76.454H36.465V77.39H33.657V84.95H32.649V77.39H29.841ZM38.7077 79.19C40.1717 79.19 41.3717 80.114 41.3717 82.202V82.43H36.8357C36.9317 83.474 37.6997 84.23 38.6837 84.23C39.4637 84.23 40.0157 83.954 40.4597 83.378L41.1677 83.93C40.5797 84.698 39.8237 85.094 38.6837 85.094C36.9437 85.094 35.8277 83.822 35.8277 82.142C35.8277 80.414 37.0397 79.19 38.7077 79.19ZM40.3637 81.638C40.3157 80.666 39.7037 80.054 38.6597 80.054C37.6997 80.054 36.9797 80.618 36.8357 81.638H40.3637ZM45.4117 79.19C46.2277 79.19 46.9957 79.466 47.5597 80.078L46.8157 80.738C46.4197 80.258 45.9637 80.054 45.3997 80.054C44.2357 80.054 43.5037 80.882 43.5037 82.142C43.5037 83.318 44.2837 84.23 45.3997 84.23C46.0117 84.23 46.4797 84.014 46.8277 83.534L47.5237 84.194C46.9837 84.818 46.2157 85.094 45.3997 85.094C43.6717 85.094 42.4957 83.882 42.4957 82.142C42.4957 80.426 43.6837 79.19 45.4117 79.19ZM49.5447 84.95H48.6087V75.878H49.5447V80.114H49.5687C49.9047 79.55 50.6247 79.19 51.3807 79.19C52.7847 79.19 53.5047 80.078 53.5047 81.434V84.95H52.5687V81.542C52.5687 80.678 52.1847 80.054 51.2847 80.054C50.1327 80.054 49.5447 80.87 49.5447 82.166V84.95ZM56.7767 84.302C56.7767 84.686 56.4407 85.022 56.0567 85.022C55.6847 85.022 55.3367 84.698 55.3367 84.302C55.3367 83.906 55.6607 83.582 56.0567 83.582C56.4527 83.582 56.7767 83.906 56.7767 84.302ZM64.8484 76.298C66.1084 76.298 66.9724 77.042 66.9724 78.182C66.9724 79.034 66.3844 79.718 65.1724 80.342L66.9724 82.25L68.1124 80.342H69.2524L67.6204 82.958L69.5644 84.95H68.1844L67.0324 83.726C66.2644 84.698 65.5084 85.094 64.4884 85.094C62.9404 85.094 61.7884 84.086 61.7884 82.67C61.7884 81.65 62.4244 80.798 63.6724 80.21C62.9164 79.454 62.6524 78.878 62.6524 78.242C62.6524 77.042 63.6244 76.298 64.8484 76.298ZM63.6604 78.302C63.6604 78.626 63.7444 78.938 64.5484 79.73C65.7244 79.118 65.9644 78.686 65.9644 78.158C65.9644 77.57 65.5084 77.162 64.8724 77.162C64.1884 77.162 63.6604 77.642 63.6604 78.302ZM62.7964 82.634C62.7964 83.51 63.5404 84.23 64.4524 84.23C65.1124 84.23 65.6404 83.954 66.4204 83.054L64.2964 80.822C63.1324 81.458 62.7964 81.974 62.7964 82.634ZM74.0884 81.734V76.454H75.0964V81.566C75.0964 83.258 75.8404 84.23 77.2924 84.23C78.7444 84.23 79.4884 83.246 79.4884 81.614V76.454H80.4964V81.746C80.4964 83.822 79.3924 85.166 77.2924 85.166C75.1924 85.166 74.0884 83.81 74.0884 81.734Z" fill="#2E2E2E"/>
</svg>
