<svg width="30" height="30" viewBox="0 0 30 30" fill="none" xmlns="http://www.w3.org/2000/svg">
<rect width="30" height="30" rx="8.33333" fill="white"/>
<g clip-path="url(#clip0_3381_1103)">
<path d="M21.1191 10.7949C19.5446 10.7949 18.2637 9.51396 18.2637 7.93945C18.2637 7.69676 18.0669 7.5 17.8242 7.5H15.4707C15.228 7.5 15.0312 7.69676 15.0312 7.93945V17.5889C15.0312 18.5145 14.2782 19.2676 13.3525 19.2676C12.4269 19.2676 11.6738 18.5145 11.6738 17.5889C11.6738 16.6632 12.4269 15.9101 13.3525 15.9101C13.5952 15.9101 13.792 15.7134 13.792 15.4707V13.1171C13.792 12.8745 13.5952 12.6777 13.3525 12.6777C10.6445 12.6777 8.44138 14.8808 8.44138 17.5889C8.44141 20.2969 10.6445 22.5 13.3525 22.5C16.0606 22.5 18.2637 20.2969 18.2637 17.5889V13.3177C19.1384 13.7839 20.1116 14.0274 21.1191 14.0274C21.3618 14.0274 21.5586 13.8306 21.5586 13.5879V11.2344C21.5586 10.9917 21.3618 10.7949 21.1191 10.7949Z" fill="#2E2E2E"/>
</g>
<defs>
<clipPath id="clip0_3381_1103">
<rect width="15" height="15" fill="white" transform="translate(7.49998 7.5)"/>
</clipPath>
</defs>
</svg>
