<svg width="30" height="30" viewBox="0 0 30 30" fill="none" xmlns="http://www.w3.org/2000/svg">
<rect width="30" height="30" rx="8.33333" fill="white"/>
<path d="M15 12.75C14.4033 12.75 13.831 12.987 13.409 13.409C12.987 13.831 12.75 14.4033 12.75 15C12.75 15.5967 12.987 16.169 13.409 16.591C13.831 17.0129 14.4033 17.25 15 17.25C15.5967 17.25 16.169 17.0129 16.591 16.591C17.0129 16.169 17.25 15.5967 17.25 15C17.25 14.4033 17.0129 13.831 16.591 13.409C16.169 12.987 15.5967 12.75 15 12.75ZM15 11.25C15.9946 11.25 16.9484 11.6451 17.6516 12.3483C18.3549 13.0516 18.75 14.0054 18.75 15C18.75 15.9946 18.3549 16.9484 17.6516 17.6516C16.9484 18.3549 15.9946 18.75 15 18.75C14.0054 18.75 13.0516 18.3549 12.3483 17.6516C11.6451 16.9484 11.25 15.9946 11.25 15C11.25 14.0054 11.6451 13.0516 12.3483 12.3483C13.0516 11.6451 14.0054 11.25 15 11.25ZM19.875 11.0625C19.875 11.3111 19.7762 11.5496 19.6004 11.7254C19.4246 11.9012 19.1861 12 18.9375 12C18.6889 12 18.4504 11.9012 18.2746 11.7254C18.0988 11.5496 18 11.3111 18 11.0625C18 10.8139 18.0988 10.5754 18.2746 10.3996C18.4504 10.2238 18.6889 10.125 18.9375 10.125C19.1861 10.125 19.4246 10.2238 19.6004 10.3996C19.7762 10.5754 19.875 10.8139 19.875 11.0625ZM15 9C13.1445 9 12.8415 9.00525 11.9782 9.0435C11.3902 9.07125 10.9957 9.15 10.6297 9.2925C10.3235 9.40495 10.0466 9.58519 9.81975 9.81975C9.585 10.0465 9.40451 10.3234 9.29175 10.6297C9.14925 10.9972 9.0705 11.391 9.0435 11.9782C9.0045 12.8062 8.99925 13.0957 8.99925 15C8.99925 16.8562 9.0045 17.1585 9.04275 18.0217C9.0705 18.609 9.14925 19.0042 9.291 19.3695C9.4185 19.6957 9.5685 19.9305 9.8175 20.1795C10.0702 20.4315 10.305 20.5822 10.6275 20.7067C10.998 20.85 11.3925 20.9295 11.9775 20.9565C12.8055 20.9955 13.095 21 14.9992 21C16.8555 21 17.1577 20.9947 18.021 20.9565C18.6075 20.9287 19.002 20.85 19.3687 20.7082C19.6748 20.5952 19.9515 20.4151 20.1787 20.181C20.4315 19.929 20.5822 19.6942 20.7067 19.371C20.8492 19.002 20.9287 18.6075 20.9557 18.021C20.9947 17.1937 20.9992 16.9035 20.9992 15C20.9992 13.1445 20.994 12.8415 20.9557 11.9782C20.928 11.3917 20.8485 10.9957 20.7067 10.6297C20.5937 10.3238 20.4135 10.047 20.1795 9.81975C19.9528 9.58488 19.6759 9.40437 19.3695 9.29175C19.002 9.14925 18.6075 9.0705 18.021 9.0435C17.1937 9.0045 16.905 9 15 9ZM15 7.5C17.0377 7.5 17.292 7.5075 18.0922 7.545C18.8902 7.5825 19.4347 7.70775 19.9125 7.89375C20.4075 8.08425 20.8245 8.34225 21.2415 8.7585C21.6229 9.13342 21.918 9.58694 22.1062 10.0875C22.2915 10.5652 22.4175 11.1097 22.455 11.9085C22.4902 12.708 22.5 12.9622 22.5 15C22.5 17.0377 22.4925 17.292 22.455 18.0915C22.4175 18.8902 22.2915 19.434 22.1062 19.9125C21.9185 20.4133 21.6233 20.8669 21.2415 21.2415C20.8665 21.6227 20.413 21.9178 19.9125 22.1062C19.4347 22.2915 18.8902 22.4175 18.0922 22.455C17.292 22.4902 17.0377 22.5 15 22.5C12.9622 22.5 12.708 22.4925 11.9077 22.455C11.1097 22.4175 10.566 22.2915 10.0875 22.1062C9.58674 21.9183 9.13314 21.6232 8.7585 21.2415C8.37707 20.8666 8.08197 20.4131 7.89375 19.9125C7.70775 19.4347 7.5825 18.8902 7.545 18.0915C7.509 17.292 7.5 17.0377 7.5 15C7.5 12.9622 7.5075 12.708 7.545 11.9085C7.5825 11.109 7.70775 10.566 7.89375 10.0875C8.08143 9.58663 8.3766 9.13299 8.7585 8.7585C9.13325 8.37692 9.58682 8.0818 10.0875 7.89375C10.5652 7.70775 11.109 7.5825 11.9077 7.545C12.708 7.50975 12.9622 7.5 15 7.5Z" fill="#2E2E2E"/>
</svg>
