<svg width="34" height="34" viewBox="0 0 34 34" fill="none" xmlns="http://www.w3.org/2000/svg">
<g clip-path="url(#clip0_2308_20914)">
<g opacity="0.2">
<path d="M17.0163 33.7012C8.0346 33.7012 0.727478 26.3941 0.727478 17.4124C0.727478 8.43077 8.0346 1.12372 17.0163 1.12372C25.9979 1.12372 33.305 8.43077 33.305 17.4124C33.305 26.3941 25.9979 33.7012 17.0163 33.7012Z" fill="#2E2E2E"/>
</g>
<path fill-rule="evenodd" clip-rule="evenodd" d="M17.0163 33.1699C8.0346 33.1699 0.727478 25.8628 0.727478 16.8812C0.727478 7.89952 8.0346 0.592468 17.0163 0.592468C25.9979 0.592468 33.305 7.89952 33.305 16.8812C33.305 25.8628 25.9979 33.1699 17.0163 33.1699Z" fill="#2E2E2E"/>
<mask id="mask0_2308_20914" style="mask-type:luminance" maskUnits="userSpaceOnUse" x="1" y="1" width="32" height="32">
<path d="M17.0163 32.3759C25.5615 32.3759 32.4888 25.4486 32.4888 16.9034C32.4888 8.35814 25.5615 1.43085 17.0163 1.43085C8.47104 1.43085 1.54375 8.35814 1.54375 16.9034C1.54375 25.4486 8.47104 32.3759 17.0163 32.3759Z" fill="white"/>
</mask>
<g mask="url(#mask0_2308_20914)">
<path d="M1.54375 1.12891H32.4725V32.7382H1.54375V1.12891Z" fill="#006C35"/>
<path d="M14.8753 11.4938C14.8593 11.4933 14.8354 11.5022 14.8018 11.5221C14.7264 11.5727 14.577 11.7284 14.5725 11.9074C14.5679 12.0085 14.5488 12.0081 14.615 12.0724C14.6628 12.1413 14.7105 12.1345 14.807 12.0839C14.8624 12.0431 14.8811 12.0171 14.8998 11.9486C14.9228 11.8338 14.779 12.0029 14.7606 11.8752C14.7285 11.7565 14.8202 11.7078 14.9075 11.593C14.9095 11.5389 14.9105 11.4948 14.8753 11.4938ZM16.28 11.5015C16.253 11.5052 16.2201 11.5397 16.1742 11.6227C16.1415 11.7096 16 11.8411 16.1021 12.1124C16.1857 12.2844 16.2199 12.5639 16.182 12.8753C16.1242 12.9638 16.111 12.9943 16.0351 13.0828C15.9286 13.1974 15.8132 13.1681 15.7245 13.1254C15.6418 13.0696 15.5767 13.041 15.539 12.8638C15.5458 12.5814 15.5623 12.119 15.5107 12.021C15.4345 11.869 15.3091 11.9235 15.2555 11.9694C14.9979 12.205 14.8706 12.6027 14.7929 12.9192C14.7214 13.1498 14.6453 13.0831 14.5919 12.99C14.4617 12.868 14.4526 11.9144 14.2955 12.0712C14.0438 12.7904 14.4399 13.5782 14.7143 13.5017C14.9122 13.5836 15.0379 13.2068 15.1189 12.7942C15.1744 12.6784 15.2168 12.6651 15.2452 12.7246C15.2379 13.2733 15.2846 13.3957 15.4257 13.5622C15.7403 13.805 16.0006 13.593 16.021 13.5725C16.0414 13.5521 16.2659 13.3277 16.2659 13.3277C16.3204 13.2703 16.3925 13.2668 16.4695 13.3174C16.5444 13.3854 16.5347 13.5027 16.695 13.5842C16.8299 13.6381 17.1179 13.5972 17.1847 13.481C17.2747 13.327 17.2965 13.274 17.3381 13.2155C17.4023 13.1301 17.5121 13.1679 17.5121 13.195C17.5019 13.2426 17.4374 13.2895 17.4811 13.3754C17.5574 13.4326 17.5753 13.3958 17.6204 13.3831C17.78 13.3068 17.9 12.9604 17.9 12.9604C17.907 12.8312 17.8336 12.841 17.7866 12.8676C17.7253 12.9051 17.7216 12.9178 17.6603 12.9553C17.5823 12.9668 17.431 13.0184 17.3562 12.9024C17.2798 12.763 17.2794 12.5687 17.2209 12.4282C17.2209 12.4179 17.1188 12.2071 17.2132 12.1936C17.2608 12.2024 17.3632 12.2289 17.3794 12.1433C17.4294 12.0599 17.2716 11.8233 17.1642 11.7039C17.071 11.6015 16.9423 11.5891 16.8175 11.6936C16.7303 11.7739 16.7432 11.8636 16.726 11.9487C16.7038 12.0465 16.7081 12.1675 16.8072 12.2967C16.8944 12.4685 17.0528 12.6891 17.0005 13.0003C17.0005 13.0003 16.9086 13.1484 16.7467 13.1291C16.6792 13.1145 16.5693 13.0852 16.5108 12.6537C16.4666 12.327 16.5219 11.8692 16.3832 11.6549C16.3517 11.574 16.3249 11.4954 16.28 11.5015ZM15.8354 11.5362C15.7935 11.5398 15.747 11.5887 15.7091 11.6831C15.6767 11.7549 15.637 12.1303 15.6434 12.1303C15.6175 12.242 15.7602 12.2894 15.8251 12.1457C15.9226 11.8824 15.923 11.7703 15.9295 11.6586C15.9143 11.5736 15.8774 11.5325 15.8354 11.5362ZM17.4772 11.5657C17.4342 11.5697 17.3998 11.5949 17.387 11.6585C17.3699 11.8082 17.3787 11.8896 17.4038 12.0142C17.4231 12.0973 17.544 12.2364 17.6036 12.3171C17.8879 12.6993 18.1615 13.0834 18.4258 13.4808C18.4673 13.7758 18.4978 14.0645 18.5173 14.3519C18.5601 14.9823 18.5732 15.7669 18.5341 16.4306C18.6521 16.4352 18.8413 16.2399 18.9078 15.9538C18.9509 15.558 18.8924 14.7504 18.8885 14.5168C18.8856 14.4199 18.8796 14.3042 18.873 14.1831C19.1804 14.6853 19.4785 15.2174 19.7712 15.8017C19.8778 15.751 19.8543 15.1502 19.7918 15.0658C19.5576 14.5616 19.234 14.0639 19.1307 13.8724C19.0935 13.8033 18.9666 13.6104 18.8163 13.3879C18.7887 13.0704 18.7586 12.8015 18.739 12.7203C18.6906 12.3847 18.877 12.7582 18.8511 12.5631C18.7908 12.2279 18.6058 12.0002 18.3873 11.6932C18.3168 11.5934 18.3182 11.5731 18.2094 11.7177C18.1444 11.8652 18.1452 11.988 18.1642 12.103C18.1357 12.0615 18.1003 12.0122 18.0496 11.951C17.8609 11.7891 17.8491 11.7802 17.6926 11.6481C17.6431 11.6132 17.5491 11.5592 17.4772 11.5657ZM22.3433 11.6161C22.3224 11.6128 22.2995 11.6231 22.2738 11.6612C22.2246 11.7043 22.1716 11.7824 22.1732 11.8828C22.1852 12.0597 22.2166 12.2408 22.2286 12.4177C22.2328 12.4413 22.2373 12.4649 22.2415 12.4885C22.2224 12.4643 22.2059 12.4454 22.1963 12.4357C21.8516 12.0736 22.3548 12.3765 22.1307 12.0968C21.9411 11.8887 21.8856 11.8225 21.7234 11.6973C21.6421 11.6447 21.5929 11.5442 21.5661 11.7153C21.5556 11.8656 21.5445 12.0397 21.5546 12.1663C21.554 12.2368 21.627 12.3693 21.6899 12.4473C21.9199 12.7298 22.1547 13.0305 22.391 13.3442C22.4406 13.9841 22.4539 14.5706 22.5044 15.2115C22.4972 15.4856 22.4129 15.8497 22.3329 15.8842C22.3329 15.8842 22.2109 15.9543 22.1294 15.8764C22.07 15.8527 21.833 15.4808 21.833 15.4808C21.7116 15.3695 21.6307 15.4014 21.5443 15.4808C21.3062 15.7107 21.1984 16.1416 21.0366 16.4383C20.9949 16.5046 20.8773 16.5609 20.7467 16.4331C20.4147 15.9796 20.6088 15.3342 20.5675 15.5001C20.272 15.8332 20.4029 16.3853 20.4696 16.504C20.5671 16.699 20.6458 16.8238 20.8356 16.9203C21.0083 17.0475 21.1429 16.9681 21.217 16.879C21.3909 16.6989 21.3932 16.2382 21.4748 16.1471C21.5319 15.9796 21.6754 16.0084 21.7454 16.0826C21.8132 16.1801 21.8932 16.2435 21.9928 16.2965C22.155 16.4395 22.3485 16.4656 22.5393 16.3352C22.6696 16.2621 22.7542 16.1671 22.8306 15.9796C22.9125 15.7606 22.872 14.6129 22.8538 13.9744C22.9762 14.1469 23.0971 14.3231 23.2171 14.5015C23.2699 15.062 23.2938 15.6139 23.2765 16.1433C23.264 16.2485 23.6437 15.8291 23.6412 15.6304C23.6395 15.4565 23.6415 15.299 23.6412 15.1523C23.8253 15.4463 24.0036 15.7453 24.1722 16.048C24.2766 15.9926 24.2408 15.4014 24.1748 15.3199C23.9983 15.0238 23.7724 14.7039 23.5974 14.4565C23.5628 14.144 23.5158 13.7755 23.4943 13.6626C23.4609 13.4865 23.4274 13.222 23.3769 13.0131C23.3632 12.9315 23.3214 12.6709 23.3344 12.6458C23.3551 12.5875 23.4328 12.6477 23.4711 12.5802C23.5284 12.5177 23.2725 11.8544 23.1424 11.6652C23.0957 11.5804 23.0112 11.6097 22.9066 11.7476C22.8095 11.8384 22.8451 12.0455 22.8821 12.2425C22.9783 12.7445 23.0641 13.2558 23.1321 13.7658C23.0064 13.5788 22.8528 13.3525 22.7018 13.1343C22.6976 13.1133 22.6824 13.0362 22.6824 13.0351C22.6824 13.0261 22.6616 12.6244 22.6438 12.5287C22.6407 12.4899 22.6314 12.4786 22.6721 12.4836C22.7153 12.5199 22.7212 12.5219 22.7482 12.5339C22.7918 12.5418 22.8299 12.4681 22.8036 12.3998C22.6688 12.151 22.5338 11.9012 22.3989 11.6524C22.3825 11.6362 22.3643 11.6193 22.3433 11.6161ZM9.78499 11.629C9.71029 11.6268 9.62781 11.6731 9.66002 11.763C9.64129 11.812 9.80631 11.9775 9.83526 12.0684C9.86129 12.1333 9.8095 12.3417 9.86362 12.361C9.91336 12.3825 9.98189 12.2166 10.0079 12.0633C10.0223 11.9793 10.0114 11.6918 9.81587 11.6328C9.80591 11.6306 9.79568 11.6293 9.78499 11.629ZM24.091 11.6306C24.074 11.6324 24.0533 11.6598 24.0214 11.7273C23.9449 11.8526 23.9186 12.0769 23.9493 12.275C24.1333 13.5205 24.2702 14.7266 24.2984 15.8305C24.2827 15.9353 24.278 15.991 24.2288 16.1231C24.1202 16.2624 24.0003 16.437 23.8874 16.5212C23.7744 16.6054 23.5342 16.6857 23.4556 16.7481C23.2064 16.8921 23.2052 17.0578 23.4067 17.0638C23.7539 17.0235 24.1649 16.9949 24.448 16.5676C24.5237 16.4479 24.6129 16.1233 24.6168 15.9246C24.6433 14.7597 24.6018 13.6207 24.4273 12.7789C24.4161 12.6968 24.3798 12.5083 24.3938 12.4837C24.4162 12.4261 24.5299 12.4895 24.5704 12.4232C24.6297 12.3626 24.2765 11.9103 24.1529 11.717C24.1281 11.6684 24.113 11.6284 24.091 11.6306ZM20.4491 11.6499C20.4348 11.6524 20.4136 11.6743 20.3744 11.726C20.2773 12.0431 20.2432 12.3022 20.2803 12.4992C20.5295 13.7996 20.7849 14.9843 20.7442 16.2223C20.8624 16.2231 20.999 15.9519 21.0573 15.6836C21.0893 15.314 21.0361 15.0889 21.0265 14.8716C21.0168 14.6544 20.7806 12.8917 20.7326 12.7273C20.6748 12.4165 20.9625 12.6863 20.931 12.5056C20.8316 12.2777 20.5835 11.9458 20.5058 11.7478C20.4766 11.6948 20.4731 11.6458 20.4491 11.6499ZM11.5817 11.6745C11.5511 11.6798 11.5215 11.7049 11.5108 11.7466C11.5041 11.7739 11.5226 11.8192 11.4979 11.8329C11.4839 11.8472 11.43 11.8376 11.4323 11.762C11.4323 11.738 11.4145 11.7129 11.4039 11.6976C11.3931 11.6907 11.3859 11.6886 11.3665 11.6886C11.3429 11.6896 11.3433 11.6958 11.3304 11.7157C11.3246 11.7359 11.3172 11.7557 11.3172 11.7788C11.3143 11.8057 11.3034 11.8148 11.2837 11.8188C11.2616 11.8188 11.2668 11.8212 11.2489 11.8097C11.2383 11.7981 11.2257 11.7935 11.2257 11.7737C11.2257 11.7531 11.2202 11.7202 11.214 11.7067C11.2047 11.6942 11.1898 11.6878 11.1728 11.6835C11.0802 11.6838 11.0734 11.7903 11.0787 11.8304C11.0718 11.8379 11.0684 12.0266 11.1947 12.0791C11.3644 12.16 11.6825 12.1258 11.669 11.8523C11.669 11.828 11.6637 11.7468 11.6613 11.7247C11.644 11.6843 11.612 11.6691 11.5813 11.6745H11.5817ZM13.8575 11.677C13.7988 11.68 13.7471 11.6968 13.7028 11.7195C13.5905 11.8271 13.5641 11.9997 13.6525 12.1074C13.7387 12.1481 13.8247 12.2348 13.7672 12.2826C13.5237 12.5429 12.8894 12.9778 12.8575 13.0572C12.8572 13.0578 12.8563 13.0591 12.8562 13.0597C12.8561 13.0603 12.8562 13.0618 12.8562 13.0623C12.8562 13.0626 12.8561 13.0634 12.8562 13.0637C12.8564 13.0643 12.8571 13.0657 12.8575 13.0663L12.8587 13.0675C12.8589 13.0677 12.8598 13.0674 12.86 13.0675C12.8603 13.0677 12.8611 13.0687 12.8613 13.0688C12.8616 13.0689 12.8623 13.0688 12.8626 13.0688L12.864 13.0702C12.8962 13.0918 13.293 13.0912 13.3369 13.0714C13.3372 13.0713 13.338 13.0703 13.3382 13.0702C13.3384 13.0701 13.3394 13.0702 13.3395 13.0702C13.3396 13.0701 13.3394 13.069 13.3395 13.0688C13.476 13.0186 14.1231 12.2789 14.1231 12.2789C14.0896 12.2502 14.0586 12.229 14.0251 12.2003C13.9892 12.1692 13.9928 12.1386 14.0251 12.1075C14.1854 12.0143 14.1347 11.809 14.0509 11.7158C13.9815 11.6845 13.9162 11.674 13.8575 11.677ZM19.8062 11.6796C19.7891 11.6812 19.7684 11.7075 19.7366 11.7749C19.6602 11.9002 19.6081 12.1183 19.6141 12.3226C19.7798 13.4695 19.8306 14.4733 19.9389 15.6204C19.9478 15.7313 19.9314 15.8925 19.8577 15.9567C19.5849 16.2416 19.1917 16.5928 18.7635 16.7544C18.7175 16.8061 18.8781 17.0265 19.0858 17.0264C19.4331 16.9861 19.7383 16.7912 20.0214 16.2777C20.0972 16.1579 20.2302 15.9016 20.234 15.7029C20.2605 14.538 20.1753 13.6323 20.0008 12.7904C19.9896 12.7085 19.9972 12.6114 20.0111 12.5868C20.0336 12.56 20.1098 12.5874 20.1502 12.5211C20.2096 12.4605 19.9917 11.9579 19.8681 11.7646C19.8433 11.7161 19.8281 11.6774 19.8062 11.6796ZM10.5906 11.7146C10.5427 11.7202 10.4976 11.7593 10.4759 11.8113C10.4679 11.9953 10.4668 12.1791 10.4875 12.3487C10.5712 12.646 10.5977 12.9076 10.6382 13.2121C10.6495 13.62 10.4028 13.3885 10.414 13.1863C10.471 12.9237 10.4556 12.5102 10.405 12.4054C10.3648 12.3006 10.3184 12.2748 10.2207 12.292C10.1433 12.2872 9.94297 12.5054 9.88699 12.8667C9.88699 12.8667 9.84038 13.0521 9.81999 13.2173C9.79256 13.4038 9.66898 13.536 9.58285 13.1914C9.50841 12.9411 9.46266 12.3241 9.33801 12.4685C9.30229 12.9502 9.25992 13.7979 9.66918 13.8848C10.1642 13.9323 9.89078 13.0479 10.0699 12.8873C10.1038 12.8079 10.1666 12.8065 10.1717 12.9066V13.6579C10.1672 13.9022 10.3279 13.9748 10.4526 14.0252C10.5825 14.0151 10.6685 14.0187 10.7194 14.145C10.7397 14.5781 10.761 15.0123 10.7813 15.4454C10.7813 15.4454 11.0814 15.5316 11.0956 14.7147C11.1101 14.2349 11.0002 13.8324 11.0648 13.7391C11.067 13.6474 11.1846 13.6429 11.2658 13.6876C11.3951 13.7789 11.4526 13.8912 11.6537 13.8461C11.9597 13.7619 12.1439 13.6133 12.1485 13.3784C12.1307 13.155 12.1048 12.9315 12.0081 12.7082C12.0215 12.6676 11.9495 12.5619 11.9629 12.5214C12.018 12.6075 12.1011 12.6004 12.1202 12.5214C12.0681 12.3497 11.987 12.1853 11.856 12.1142C11.7477 12.0188 11.5892 12.039 11.5312 12.2379C11.5044 12.4671 11.6143 12.7388 11.7812 12.9609C11.8168 13.0476 11.8664 13.1919 11.8444 13.3217C11.7556 13.3724 11.6675 13.3513 11.5931 13.2728C11.5931 13.2728 11.3495 13.0904 11.3495 13.0499C11.4142 12.6361 11.3635 12.5887 11.3276 12.4738C11.3026 12.3153 11.2275 12.2651 11.1665 12.1568C11.1056 12.0922 11.0229 12.0922 10.9835 12.1568C10.8758 12.3435 10.9264 12.7441 11.0041 12.9236C11.0603 13.0887 11.1465 13.1917 11.1059 13.1917C11.0725 13.285 11.0028 13.2633 10.9525 13.1556C10.8808 12.9332 10.8662 12.6015 10.8662 12.4521C10.8447 12.2667 10.8207 11.8708 10.6987 11.7703C10.6663 11.7257 10.6279 11.7103 10.5906 11.7146ZM12.3291 11.7172C12.3044 11.7203 12.2773 11.7343 12.2453 11.7417C12.1401 11.7752 12.0415 11.8662 12.0726 12.0433C12.197 12.7992 12.2781 13.3762 12.4025 14.1323C12.4216 14.2208 12.3474 14.3375 12.2517 14.3256C12.089 14.2155 12.0486 13.9926 11.771 14.0021C11.5701 14.0046 11.3408 14.2232 11.3123 14.4338C11.2788 14.6012 11.2668 14.7827 11.3123 14.9287C11.4535 15.0985 11.6227 15.0805 11.771 15.0421C11.893 14.9919 11.9934 14.8717 12.0365 14.9003C12.0366 14.9005 12.0377 14.9002 12.0378 14.9003C12.0379 14.9005 12.0377 14.9015 12.0378 14.9017C12.0644 14.9481 12.0353 15.3414 11.4631 15.6453C11.1114 15.8032 10.8314 15.8409 10.6808 15.5538C10.5875 15.3743 10.6876 14.6909 10.4578 14.8488C9.77842 16.6001 12.0496 16.8446 12.3032 14.921C12.3197 14.8667 12.3698 14.8122 12.4051 14.8256C12.4206 14.8322 12.4348 14.8532 12.4398 14.8926C12.3872 16.6343 10.6829 16.7536 10.3934 16.2057C10.3217 16.0766 10.3001 15.7891 10.2929 15.6168C10.2798 15.5125 10.2536 15.4524 10.2233 15.4286C10.1542 15.3767 10.0614 15.5121 10.0416 15.7469C10.0129 15.9359 10.021 15.9878 10.021 16.1696C10.1119 17.5453 12.3051 16.9543 12.6615 15.8178C12.838 15.2304 12.6579 14.7872 12.7169 14.7327C12.7173 14.7323 12.7189 14.7319 12.7195 14.7315C12.72 14.7311 12.7215 14.7305 12.7221 14.7302C12.7227 14.7299 12.724 14.7291 12.7247 14.7289C12.7267 14.7283 12.73 14.7276 12.7324 14.7276C12.9502 14.9621 13.2556 14.7574 13.3226 14.676C13.3514 14.6353 13.4232 14.6092 13.4734 14.6619C13.6432 14.7839 13.9409 14.7264 14.0031 14.5111C14.039 14.3005 14.0694 14.0838 14.0765 13.859C13.9659 13.8933 13.8767 13.919 13.8407 13.957C13.8322 13.9663 13.8258 13.9767 13.8239 13.9879C13.8144 14.0501 13.8052 14.1125 13.7956 14.1747C13.7946 14.1799 13.793 14.1846 13.7905 14.1889C13.7858 14.1966 13.778 14.2036 13.7698 14.2082C13.7307 14.2296 13.6625 14.2174 13.659 14.1606C13.6064 13.9213 13.3898 13.8902 13.2582 14.2611C13.1697 14.3328 13.0082 14.3468 12.9915 14.2392C13.013 13.9904 12.9127 13.957 12.7118 14.0742C12.6472 13.5814 12.5831 13.1109 12.5185 12.618C12.6023 12.6156 12.679 12.6763 12.7556 12.5806C12.6727 12.323 12.4974 11.7986 12.3987 11.7494C12.3978 11.7491 12.3969 11.7484 12.3961 11.7481C12.3916 11.7427 12.3863 11.7377 12.3819 11.734C12.38 11.7324 12.3773 11.73 12.3754 11.7288C12.3736 11.7274 12.3708 11.7259 12.369 11.7249C12.365 11.7227 12.36 11.7209 12.3561 11.7197C12.3471 11.7172 12.3383 11.7159 12.329 11.7171L12.3291 11.7172ZM19.1062 11.7211C19.0193 11.7185 18.9231 11.7733 18.9606 11.8822C18.9388 11.9415 19.1474 12.143 19.181 12.2533C19.2414 12.4227 19.1348 12.5843 19.1977 12.6077C19.2557 12.6338 19.3363 12.4327 19.3665 12.2468C19.4014 12.0965 19.2942 11.7885 19.1423 11.7249C19.1306 11.7222 19.1186 11.7214 19.1062 11.7211ZM13.8264 11.9066C13.866 11.9026 13.9139 11.9389 13.9372 11.9904C13.9621 12.0453 13.9497 12.0977 13.9089 12.1077C13.868 12.1177 13.8153 12.0814 13.7903 12.0265C13.7654 11.9716 13.7779 11.918 13.8186 11.9079C13.8212 11.9073 13.8238 11.9069 13.8264 11.9066ZM23.6205 12.1605C23.5413 12.1577 23.4549 12.2179 23.4891 12.3358C23.4693 12.4001 23.6583 12.6185 23.6889 12.7379C23.7165 12.8228 23.6469 13.0967 23.7043 13.1219C23.7571 13.1502 23.8314 12.9327 23.8589 12.7314C23.8742 12.6212 23.7926 12.2346 23.654 12.1657C23.6435 12.1627 23.6319 12.1609 23.6205 12.1605ZM18.2055 12.2946C18.2128 12.3268 18.2201 12.3594 18.2249 12.3925C18.2411 12.4639 18.2551 12.5348 18.27 12.6051C18.2075 12.5191 18.1556 12.4494 18.1334 12.4247C17.9918 12.2565 18.1365 12.3142 18.2055 12.2946ZM19.4529 12.9079C19.4224 12.9133 19.3928 12.9398 19.3822 12.9814C19.3754 13.0086 19.3952 13.0527 19.3705 13.0665C19.3564 13.0807 19.3013 13.0724 19.3035 12.9969C19.3035 12.9728 19.2858 12.9464 19.2751 12.9311C19.2644 12.9241 19.2571 12.9222 19.2378 12.9222C19.2141 12.9231 19.2147 12.9293 19.2017 12.9492C19.1962 12.9694 19.1888 12.9894 19.1888 13.0123C19.1859 13.0392 19.1764 13.0483 19.1566 13.0523C19.1346 13.0523 19.1385 13.0547 19.1205 13.0433C19.1099 13.0317 19.0974 13.0271 19.0974 13.0072C19.0974 12.9866 19.0919 12.9538 19.0857 12.9402C19.0763 12.9278 19.0615 12.9227 19.0444 12.9183C18.9518 12.9186 18.9464 13.0238 18.9517 13.0639C18.9448 13.0715 18.9401 13.2615 19.0665 13.314C19.2361 13.3948 19.5554 13.3594 19.542 13.0858C19.542 13.0617 19.5353 12.9804 19.5329 12.9583C19.5156 12.9179 19.4836 12.9026 19.4529 12.9079ZM13.7571 12.9647C13.7362 12.9625 13.7088 12.9702 13.6772 12.9892C13.5272 13.0703 13.4691 13.311 13.5625 13.4518C13.6498 13.5759 13.7877 13.5304 13.806 13.5304C13.953 13.5488 14.0406 13.2547 14.0406 13.2547C14.0406 13.2547 14.0449 13.172 13.8704 13.3281C13.797 13.3419 13.787 13.3153 13.7686 13.274C13.7533 13.1975 13.7567 13.1199 13.7919 13.0433C13.8083 12.9974 13.7921 12.9682 13.7571 12.9647ZM21.8089 13.002C21.7257 12.998 21.6371 13.0519 21.6143 13.1657C21.6147 13.2328 21.6446 13.2697 21.6388 13.3306C21.6301 13.3654 21.5942 13.3884 21.5087 13.3474C21.522 13.3351 21.4532 13.2378 21.4532 13.2378C21.3865 13.1972 21.2973 13.24 21.2393 13.2778C21.2074 13.3359 21.1838 13.4353 21.2199 13.5369C21.3157 13.7139 21.6444 14.016 21.8012 14.0189C21.8041 13.8593 21.8196 13.647 21.8283 13.515C21.832 13.4651 21.8436 13.4102 21.8913 13.3977C21.9391 13.3852 22.0218 13.4457 22.0228 13.3938C22.0141 13.2922 21.9937 13.1424 21.9364 13.0716C21.9071 13.0281 21.8589 13.0045 21.8089 13.002ZM15.144 13.5575C15.1418 13.5583 15.1396 13.5602 15.1375 13.5613C15.1365 13.5619 15.1347 13.5632 15.1337 13.5639C15.1171 13.5764 15.0975 13.6051 15.0538 13.6361C14.98 13.72 14.9668 13.7785 14.9712 13.9467C14.9754 13.9645 15.1113 14.3422 15.2264 14.6077C15.304 14.8838 15.3758 15.1997 15.3231 15.4982C15.1414 15.8928 14.7761 16.2467 14.4236 16.439C14.244 16.4966 14.0888 16.4769 14.0473 16.4377C14.0469 16.4374 14.0462 16.4367 14.0459 16.4364C13.9427 16.3671 13.9404 16.2436 13.9467 16.2225C13.9467 16.2224 13.9467 16.2214 13.9467 16.2212C13.9469 16.221 13.9478 16.2201 13.948 16.2199C14.2455 16.0127 14.5854 15.845 14.8514 15.2856C14.9299 15.0719 14.9539 14.9435 14.8759 14.6129C14.8455 14.4898 14.8079 14.3884 14.7238 14.3011C14.724 14.3008 14.7249 14.3 14.7251 14.2998C14.7758 14.2756 14.9072 14.3723 14.9274 14.3114C14.8963 14.1535 14.7894 13.9417 14.6684 13.8332C14.5624 13.737 14.4471 13.7259 14.3501 13.8139C14.2408 13.8747 14.2176 14.0932 14.2702 14.2843C14.3286 14.4282 14.4865 14.4534 14.5988 14.7431V14.7443C14.6012 14.7625 14.6374 14.9606 14.5808 15.0407C14.5349 15.184 13.9447 15.6494 13.9029 15.6773C13.9025 15.6778 13.8995 15.6795 13.899 15.6799C13.8988 15.6802 13.898 15.681 13.8978 15.6813C13.8977 15.6813 13.8968 15.6823 13.8965 15.6826C13.8964 15.6827 13.8953 15.6837 13.8951 15.6838C13.8951 15.6838 13.894 15.6838 13.8939 15.6838C13.8938 15.6838 13.8928 15.6838 13.8926 15.6838C13.8923 15.6836 13.8915 15.6828 13.8913 15.6826C13.8913 15.6825 13.8913 15.6814 13.8913 15.6813C13.8911 15.6808 13.8902 15.6791 13.89 15.6786C13.8882 15.667 13.8913 15.6374 13.89 15.5898C13.886 15.5026 13.9222 15.3053 13.9196 15.2714C13.9196 15.2713 13.9196 15.2703 13.9196 15.2701C13.9194 15.2699 13.9186 15.2691 13.9183 15.2689C13.9183 15.2687 13.9183 15.2677 13.9183 15.2676C13.918 15.2676 13.917 15.2676 13.917 15.2676C13.7219 15.3935 13.6575 15.7796 13.6219 15.8939C13.1281 16.2351 12.5673 16.489 12.2442 16.8347C12.076 17.0974 13.4031 16.533 13.5574 16.4648C13.5587 16.4658 13.56 16.4674 13.5612 16.4687C13.5905 16.501 13.593 16.6135 13.6811 16.7149C13.8191 16.9017 14.1123 17.0168 14.3976 16.9456C14.8761 16.7726 15.1518 16.4465 15.4324 16.0847C15.4725 16.0264 15.5354 15.9804 15.5935 16.0254C15.7864 16.4571 16.3425 16.7644 17.0614 16.7961C17.2277 16.5937 17.1482 16.4943 17.0807 16.452C17.0599 16.4382 16.7232 16.3069 16.6709 16.1762C16.638 16.0545 16.718 15.9467 16.8784 15.8656C17.34 15.8098 17.7938 15.7478 18.2329 15.6066C18.2373 15.4591 18.3242 15.2385 18.3824 15.1427C18.4227 15.0762 18.4487 15.0696 18.4584 15.0602C18.4587 15.0599 18.4595 15.0593 18.4597 15.059C18.4599 15.0588 18.461 15.0578 18.4611 15.0576C18.4613 15.0574 18.4622 15.0566 18.4624 15.0563C18.4624 15.0559 18.4624 15.0542 18.4624 15.0537C18.4627 15.0508 18.4623 15.0458 18.4611 15.0408L18.3864 14.997L16.9133 14.9906C16.8952 14.9836 16.8816 14.9766 16.8733 14.9699C16.8727 14.9694 16.8713 14.9679 16.8707 14.9673C16.8704 14.9671 16.8696 14.9663 16.8694 14.966C16.8692 14.9657 16.8683 14.9649 16.8681 14.9647C16.8679 14.9642 16.8671 14.9625 16.8669 14.9621C16.8667 14.9619 16.8657 14.961 16.8655 14.9608C16.8655 14.9606 16.8655 14.9596 16.8655 14.9594C16.8655 14.9594 16.8644 14.9583 16.8643 14.9582C16.8643 14.958 16.8642 14.957 16.8643 14.9568C16.8643 14.9567 16.8643 14.9556 16.8643 14.9555C16.8643 14.9554 16.8643 14.9544 16.8643 14.9542C16.8642 14.954 16.8643 14.9531 16.8643 14.9529C16.8643 14.9529 16.8643 14.9519 16.8643 14.9516C16.8643 14.9515 16.8643 14.9505 16.8643 14.9503C16.8643 14.9501 16.8643 14.9491 16.8643 14.9489C16.8643 14.9489 16.8643 14.9478 16.8643 14.9477C16.8645 14.9475 16.8653 14.9466 16.8655 14.9463C16.8659 14.9457 16.8664 14.9445 16.8669 14.9438C16.874 14.9341 16.8915 14.9249 16.9132 14.9167C17.265 14.8687 17.8898 14.7663 17.9313 14.1653C17.9248 13.8523 17.7973 13.6474 17.4133 13.5905C17.131 13.6124 16.9297 13.8853 16.9622 14.1859C16.9487 14.2669 16.9896 14.4257 16.9068 14.4436C16.3655 14.4931 15.7745 14.8323 15.7547 15.0751C15.7546 15.0751 15.7535 15.0751 15.7534 15.0751C15.7532 15.0753 15.7524 15.0762 15.7521 15.0764C15.7516 15.0766 15.7502 15.0774 15.7495 15.0778C15.749 15.0778 15.7474 15.0778 15.7469 15.0778C15.7461 15.078 15.7439 15.0788 15.7431 15.079C15.7429 15.079 15.7421 15.079 15.7418 15.079C15.7411 15.079 15.7398 15.079 15.7392 15.079C15.739 15.079 15.7383 15.079 15.7379 15.079C15.7374 15.079 15.7358 15.079 15.7353 15.079C15.7338 15.0788 15.7313 15.078 15.7301 15.0778C15.6949 15.068 15.6496 15.0098 15.6567 14.9283C15.6361 14.5086 15.4995 14.0337 15.2856 13.668C15.2092 13.5916 15.176 13.5607 15.1542 13.5571C15.1535 13.5571 15.1523 13.5571 15.1515 13.5571C15.1507 13.5571 15.1488 13.5571 15.1477 13.5571C15.1475 13.5571 15.1466 13.5571 15.1463 13.5571C15.1462 13.5571 15.1452 13.5571 15.1451 13.5571C15.1449 13.5571 15.144 13.5571 15.1438 13.5571L15.144 13.5575ZM16.5539 13.7791C16.5233 13.7844 16.4937 13.8096 16.483 13.8512C16.4763 13.8785 16.4961 13.9239 16.4714 13.9376C16.4573 13.9519 16.4022 13.9436 16.4044 13.868C16.4044 13.844 16.3867 13.8176 16.3761 13.8023C16.3653 13.7953 16.3595 13.7933 16.34 13.7933C16.3164 13.7943 16.3156 13.8005 16.3026 13.8204C16.2971 13.8406 16.2897 13.8605 16.2897 13.8835C16.2867 13.9104 16.2773 13.9195 16.2575 13.9235C16.2353 13.9235 16.2407 13.9259 16.2227 13.9145C16.212 13.9028 16.1983 13.8982 16.1983 13.8783C16.1983 13.8577 16.1941 13.8249 16.1879 13.8113C16.1785 13.799 16.1624 13.7938 16.1454 13.7894C16.0527 13.7897 16.0473 13.8949 16.0526 13.935C16.0457 13.9425 16.041 14.1325 16.1673 14.1851C16.3369 14.2659 16.7412 14.2183 16.6428 13.957C16.6428 13.9327 16.6362 13.8515 16.6338 13.8294C16.6164 13.789 16.5845 13.7737 16.5539 13.7791ZM22.2436 14.0123C22.2393 14.0116 22.2343 14.0119 22.2293 14.0137C22.2293 14.0137 21.4434 14.5728 21.4239 14.5923C21.346 14.6615 21.385 14.9052 21.4239 14.8771C21.4802 14.8988 22.2716 14.3625 22.2564 14.2998C22.2909 14.3018 22.3076 14.0239 22.2436 14.0123ZM17.2966 14.0953C17.3286 14.0918 17.3708 14.1028 17.4113 14.1262C17.47 14.1602 17.5062 14.2114 17.5015 14.2486C17.5013 14.2496 17.5017 14.2515 17.5015 14.2525C17.5012 14.2535 17.4992 14.2553 17.4989 14.2564C17.4986 14.2573 17.498 14.2593 17.4976 14.2602C17.4974 14.2608 17.4966 14.2622 17.4963 14.2628C17.496 14.2634 17.4953 14.2648 17.495 14.2654C17.4931 14.2685 17.4899 14.2719 17.4872 14.2744C17.4591 14.3008 17.3939 14.297 17.3326 14.2616C17.2744 14.228 17.2385 14.1763 17.2424 14.1391C17.2425 14.1381 17.2435 14.1363 17.2437 14.1353C17.2447 14.1306 17.2465 14.1264 17.249 14.1224C17.2498 14.1209 17.2504 14.1185 17.2515 14.1172C17.2517 14.1169 17.2526 14.1161 17.2528 14.1159C17.2545 14.1138 17.2571 14.1111 17.2593 14.1094C17.2686 14.1021 17.2818 14.0969 17.2966 14.0953ZM10.4135 14.2371C10.0062 14.2445 9.4098 14.7709 9.39406 15.0631C9.82384 14.8567 10.2459 14.6581 10.6828 14.4445C10.6123 14.3393 10.6785 14.2444 10.4135 14.2371ZM11.7331 14.42C11.7731 14.4205 11.8152 14.4402 11.8375 14.496C11.8577 14.5473 11.8385 14.6009 11.8143 14.6275C11.8142 14.6277 11.8144 14.6286 11.8143 14.6288C11.814 14.6294 11.8134 14.6308 11.813 14.6314C11.7959 14.6534 11.7359 14.6443 11.6931 14.6443C11.6414 14.642 11.6159 14.6334 11.5849 14.5914C11.5701 14.5447 11.6152 14.4987 11.6351 14.4638C11.6353 14.4635 11.6362 14.4628 11.6364 14.4625C11.6386 14.4593 11.642 14.4553 11.6454 14.4521C11.6608 14.4381 11.6877 14.4248 11.7163 14.4213C11.7219 14.4207 11.7274 14.4199 11.7331 14.42ZM22.0906 14.5821C22.018 14.591 21.9492 14.6595 21.981 14.769C21.9611 14.8333 22.0792 15.0581 22.1099 15.1774C22.1374 15.2624 22.0744 15.5027 22.1317 15.528C22.1847 15.5563 22.3235 15.3854 22.3186 15.1711C22.3338 15.0608 22.2793 14.6549 22.1407 14.586C22.1248 14.5815 22.1072 14.58 22.0906 14.5821ZM13.294 14.979C13.23 14.9835 13.1729 15.0177 13.1986 15.1078C13.1947 15.1733 13.3794 15.2528 13.3906 15.4043C13.417 15.4667 13.3512 15.6666 13.406 15.6852C13.4566 15.706 13.5265 15.5469 13.5529 15.3991C13.5676 15.318 13.4897 15.0347 13.357 14.9841C13.3368 14.9798 13.3153 14.9776 13.294 14.979ZM15.9268 15.3385C15.9316 15.3382 15.9359 15.3385 15.941 15.3385H15.9436C16.1076 15.3832 16.3495 15.3878 16.5595 15.4095C16.7306 15.4203 16.8151 15.5542 16.6549 15.6105C16.4969 15.6646 16.345 15.7068 16.3443 15.9352C16.3651 16.0484 16.3607 16.1077 16.343 16.1349C16.3417 16.137 16.3393 16.1397 16.3379 16.1415C16.3377 16.1417 16.3368 16.1425 16.3366 16.1428C16.3363 16.1429 16.3355 16.1438 16.3353 16.144C16.335 16.1442 16.3342 16.1452 16.334 16.1454L16.3328 16.1467C16.3322 16.1469 16.3306 16.1478 16.3302 16.148C16.3279 16.1494 16.3249 16.1509 16.3225 16.1518C16.3203 16.1525 16.317 16.1527 16.3147 16.1531C16.2772 16.1586 16.2225 16.1228 16.182 16.1015C16.0845 16.0316 15.8111 15.8621 15.7722 15.4984C15.7666 15.4162 15.8281 15.3455 15.9268 15.3385ZM9.49606 15.6182C9.48583 15.6185 9.46531 15.6491 9.43809 15.6839C9.19584 16.0699 9.17426 16.6461 9.30793 16.818C9.37899 16.8992 9.49606 16.9349 9.58245 16.9095C9.73466 16.8435 9.80159 16.5351 9.76547 16.4223C9.71467 16.3429 9.67443 16.3302 9.62369 16.3978C9.51658 16.6153 9.47195 16.4666 9.46259 16.3451C9.44619 16.1146 9.4685 15.9023 9.49347 15.7342C9.50682 15.6481 9.50635 15.6179 9.49606 15.6182ZM17.7503 16.125C17.7324 16.1241 17.7131 16.1269 17.6936 16.1366C17.6898 16.1366 17.5202 16.2514 17.4655 16.3312C17.4322 16.3566 17.436 16.3786 17.4461 16.4227C17.4722 16.4824 17.5179 16.4637 17.5699 16.4356C17.6388 16.4262 17.6722 16.4714 17.6665 16.5542C17.6347 16.6574 17.6807 16.6959 17.6807 16.7024C17.6807 16.7088 17.7471 16.7659 17.825 16.7204C17.9896 16.6576 18.0921 16.5965 18.3225 16.5464C18.3829 16.5452 18.3795 16.3834 18.2838 16.3776C18.159 16.3839 18.0438 16.3903 17.9191 16.4884C17.8423 16.5062 17.8292 16.4594 17.8121 16.4175C17.7926 16.3136 17.8561 16.2403 17.8431 16.1624C17.8465 16.1658 17.8043 16.1279 17.7503 16.125ZM23.0355 16.3222C23.0049 16.3231 22.9726 16.3274 22.926 16.3312C22.8755 16.342 22.8579 16.3641 22.8486 16.4253C22.8523 16.5182 22.9091 16.5136 22.9672 16.5503C23.0009 16.5932 23.0228 16.6319 22.9647 16.7024C22.9095 16.7529 22.8702 16.7807 22.8151 16.8313C22.7891 16.8757 22.7729 16.9438 22.8525 16.9654C22.9995 17.0067 23.3396 16.7857 23.3396 16.7811C23.3947 16.7397 23.3764 16.6612 23.3717 16.6612C23.3397 16.6245 23.2672 16.6466 23.2183 16.6406C23.1952 16.6406 23.1191 16.6294 23.1552 16.562C23.1855 16.5201 23.1967 16.4951 23.2171 16.4435C23.2401 16.3929 23.2199 16.3589 23.1372 16.3314C23.0951 16.3235 23.0661 16.3212 23.0355 16.3222ZM20.8276 20.7924C20.8272 20.7926 20.8267 20.7935 20.8263 20.7937C20.5818 20.8565 20.5894 21.1102 20.7464 21.2216C18.1651 21.2216 14.2039 21.1777 13.3544 21.1777C12.8791 21.1777 11.3755 21.121 11.3466 21.121C11.6691 21.5927 12.1362 21.6887 12.7474 21.6983C13.8939 21.6983 19.2061 21.6842 20.7179 21.6842C20.6105 21.8749 20.7276 22.1821 20.812 22.2384C20.8138 22.2395 20.8167 22.2412 20.8184 22.2422C20.8217 22.2437 20.8258 22.2453 20.8288 22.2461C20.8298 22.2464 20.8317 22.246 20.8327 22.2461C20.9328 22.2697 20.9768 22.1972 21.0105 22.1443C21.1728 22.1586 22.0868 22.1718 22.1703 22.143C22.1706 22.1428 22.1714 22.1418 22.1716 22.1417C22.2283 22.2249 22.2844 22.3036 22.392 22.2899C22.5804 22.2495 22.7288 22.2289 22.7336 21.8465C22.7336 21.8465 22.7143 21.1949 22.2864 21.2357C22.1852 21.2509 21.901 21.2796 21.901 21.2796C21.5723 21.2404 21.3311 21.2365 20.9617 21.2228C20.9958 21.1795 21.056 21.0041 20.9823 20.9406C20.9631 20.9247 20.9344 20.9158 20.8947 20.9187C20.8943 20.9187 20.8937 20.9187 20.8933 20.9187C20.8927 20.9187 20.8913 20.9188 20.8907 20.9187C20.8905 20.9186 20.8897 20.9175 20.8895 20.9174C20.8883 20.917 20.8865 20.9168 20.8856 20.916C20.8836 20.9146 20.881 20.9118 20.8791 20.9097C20.8786 20.909 20.877 20.9076 20.8765 20.9071C20.8578 20.8799 20.8476 20.8131 20.8353 20.7962C20.8352 20.796 20.8342 20.7951 20.834 20.7949C20.8338 20.7948 20.8328 20.7937 20.8327 20.7935C20.8322 20.7933 20.8306 20.7925 20.8301 20.7923C20.8299 20.7923 20.829 20.7923 20.8288 20.7923C20.8286 20.7925 20.8277 20.7924 20.8276 20.7924ZM21.0028 21.7242C21.0032 21.724 21.0037 21.7244 21.0042 21.7242C21.3807 21.7426 21.7345 21.7277 22.1111 21.7461C22.1708 21.7969 22.1409 21.9131 22.102 21.9342C22.1004 21.9351 22.0974 21.9364 22.0956 21.9368C22.0942 21.9372 22.0918 21.9368 22.0905 21.9368C22.0891 21.9368 22.0867 21.9372 22.0853 21.9368C21.9629 21.9338 21.8921 21.9309 21.7696 21.9278C21.7694 21.9217 21.7687 21.9151 21.767 21.9098C21.7379 21.8238 21.5278 21.8295 21.4784 21.8969C21.4776 21.8979 21.4764 21.8998 21.4758 21.9008C21.475 21.9022 21.4739 21.9046 21.4732 21.906C21.4724 21.9076 21.4713 21.9105 21.4707 21.9124C21.4699 21.9149 21.4697 21.9188 21.4693 21.9214C21.469 21.9246 21.4677 21.9285 21.468 21.9318C21.3027 21.9516 21.154 21.9263 20.9885 21.9201C20.9402 21.8597 20.9458 21.7504 21.0028 21.7242Z" fill="white"/>
</g>
</g>
<defs>
<clipPath id="clip0_2308_20914">
<rect width="33.9999" height="33.9999" fill="white"/>
</clipPath>
</defs>
</svg>
